<svg width="442" height="470" fill="none" xmlns="http://www.w3.org/2000/svg"><g clip-path="url(#a)" fill="#F1E0CE"><path d="M108.445 374.706c10.556-14.083 20.818-28.258 33.01-41.01 6.206-6.483 12.66-12.726 19.182-18.898 6.523-6.172 13.039-12.412 19.798-18.382 13.218-11.665 27.395-22.383 39.905-34.849a87.182 87.182 0 0 0 8.147-9.209c2.524-3.347 4.479-6.978 6.563-10.599 4.333-7.45 9.13-14.62 14.363-21.468 10.27-13.566 22.069-25.747 33.105-38.658 5.733-6.699 10.946-13.813 16.318-20.81 4.629-6.023 10.175-11.318 14.603-17.496 4.57-6.366 6.755-13.826 8.325-21.403.796-3.831 1.393-7.706 1.864-11.595.556-4.162 1.32-8.293 2.29-12.378.396-1.733.706-3.452 1.079-5.211.326-1.568.696-3.367 1.868-4.55 2.409-2.435 6.536-.793 8.988.72a22.37 22.37 0 0 1 6.937 6.578c1.063 1.636 1.434 3.22.16 4.858a13.794 13.794 0 0 1-3.094 2.652c-2.933 2.05-5.778 4.137-9.013 5.73-3.365 1.64-6.89 3.02-9.959 5.185-.714.501-1.457 1.409-2.412 1.392-.838-.008-2.003-.764-2.665-1.255-1.501-1.111-2.603-2.655-3.752-4.096-1.888-2.434-3.942-4.681-6.966-5.649-2.425-.757-5.887-.942-7.125 1.791-.862 1.94-.352 3.842.499 5.665 1.182 2.509 2.555 5.154 4.478 7.171 1.151 1.205 2.482 2.218 3.721 3.326 1.239 1.107 2.04 2.56 2.876 4.02 1.046 1.82 2.229 3.937 4.634 3.705 2.1-.196 3.807-2.015 5.052-3.515a68.44 68.44 0 0 0 4.408-6.421c1.308-1.998 2.772-3.687 5.27-4.091 2.749-.439 5.583.612 7.933 1.956 2.147 1.239 5.255 3.298 6.203 5.71 1.727 4.374-8.777 5.867-11.269 6.307-2.745.499-5.258.74-7.999.051-2.274-.573-5.635-2.327-7.864-.951-2.644 1.638-4.067 4.727-5.19 7.52a38.739 38.739 0 0 1-2.623 5.657c-1.148 1.91-2.537 3.681-3.777 5.538-1.431 2.145-2.975 6.457-6.191 3.706-2.284-1.961-.196-6.757.313-9.21.855-4.099-.581-8.664-3.17-11.889-3.067-3.823-7.962-5.672-12.618-3.645-4.992 2.173-9.424 8.066-9.466 13.632-.021 5.686 3.616 10.448 6.456 15.066 2.839 4.618 6.156 11.273 12.681 8.492 2.562-1.094 4.615-3.291 6.066-5.637 1.962-3.164 3.37-7.252 7.043-8.856 4.975-2.19 9.415 2.631 12.394 6.004 2.22 2.517 4.591 4.883 6.816 7.39 2.754 3.095 5.844 6.589 7.177 10.575 1.399 4.172-2.258 6.595-6.096 6.682-4.701.109-8.721-3.344-12.085-6.219-3.364-2.874-6.8-6.415-11.111-7.881a8.872 8.872 0 0 0-5.759-.109c-3.087 1.048-4.141 3.964-5.261 6.739a39.053 39.053 0 0 1-4.195 7.612c-1.564 2.23-3.67 4.898-6.562 5.216l.227.421c-1.439-6.343 1.293-12.812.687-19.215-.535-5.679-3.782-9.625-8.789-12.149-4.865-2.481-12.074-4.398-16.999-1.016-5.143 3.527-4.63 11.284-3.379 16.593.778 3.298 1.888 6.666 3.924 9.412 2.351 3.158 5.692 5.292 9.181 6.992 3.489 1.699 7.076 3.442 10.759 4.436 3.871 1.039 7.264.232 10.585-1.922 2.908-1.885 5.921-4.686 9.581-4.798 2.67-.08 5.536 1.028 7.848 2.26a12.207 12.207 0 0 1 3.231 2.335c1.804 1.923 1.07 4.252-1.258 5.365-1.613.767-3.473.825-5.219.975a30.562 30.562 0 0 0-6.494 1.344c-2.979.937-7.893 3.644-10.218.263-3.085-4.483-.335-9.057 2.447-12.738 2.228-2.946 4.17-6.443 6.976-8.875 3.122-2.7 7.947-.763 10.862 1.383l-.223-1.061c-1.201 6.826-11.365 7.653-16.676 9.166-4.284 1.225-8.465 3.275-12.346 5.44-2.471 1.384-5.772 4.573-8.488 1.969-2.251-2.161-2.932-5.449-4.881-7.822-2.337-2.848-5.913-4.642-9.314-5.86-7.407-2.655-15.662-3.074-23.434-2.145-4.014.48-8.016 1.63-11.225 4.19a17.583 17.583 0 0 0-5.848 9.706c-1.603 6.709.907 13.581 4.025 19.465 3.766 7.102 8.942 13.222 13.759 19.618 1.403 1.858 3.959 5.875 6.805 4.366 1.17-.611 1.844-1.946 2.562-3.023a58.5 58.5 0 0 0 3.673-6.183c2.167-4.3 3.865-8.812 5.755-13.233a103.577 103.577 0 0 1 6.528-12.42c3.252-5.455 6.001-11.754 2.935-17.917-.151-.306-.238-.067-.244.155-.022 2.354.229 4.705.133 7.055a16.938 16.938 0 0 1-2.271 7.565c-2.095 3.808-4.964 7.194-7.479 10.727-4.762 6.622-10.507 14.767-18.561 17.52l.255.584c-.553-3.766 2.016-7.435 4.404-10.09a36.108 36.108 0 0 1 9.768-7.539c2.806-1.518 6.15-2.965 9.42-2.846 4.158.15 8.224 2.755 11.592 4.976a101.29 101.29 0 0 1 10.734 8.313c1.553 1.354 3.373 2.758 4.187 4.713.924 2.22-.504 4.649-1.577 6.552-2.607 4.649-5.561 9.119-10.113 12.08-4.233 2.753-9.241 3.83-14.243 3.927-4.787.002-9.57-.247-14.33-.748-4.042-.353-11.132-.973-12.393-5.785l.023.907c1.753-1.799 3.594 1.284 4.114 2.69.459 1.243.673 2.756-.052 3.945a2.405 2.405 0 0 1-1.083 1.028c-1.063.338-2.353-1.628-2.929-2.334-4.975-6.089-7.584-15.352-15.464-18.525-3.655-1.467-7.795-1.76-11.67-1.946a84.017 84.017 0 0 0-5.337-.09c-1.431.016-2.912-.015-3.915 1.155-1.709 1.991-2.225 5.212-1.777 7.734.484 2.704 2.034 5.033 3.882 7.001 2.516 2.739 5.568 4.906 8.399 7.287 4.329 3.644 8.846 6.96 13.27 10.505a.05.05 0 0 0 .067.008.055.055 0 0 0 .016-.018c.925-1.223.763-3.027.607-4.461-.243-2.186-.97-4.291-1.212-6.489-.382-3.282 1.28-9.237-1.819-11.644-.068-.039-.102.032-.118.081-1.96 5.1-1.759 10.266-.884 15.569.765 4.668.201 9.867 2.089 14.295 0 0 .079.187.142.166 1.46-.579 1.85-1.299 2.404-2.671.947-2.341 3.177-2.996 5.488-3.167 3.767-.249 7.547.21 11.144 1.353 7.562 2.32 14.412 7.034 19.774 12.786 5.721 6.166 8.961 13.355 10.274 21.62 1.338 8.388 1.154 17.775-2.995 25.407-8.973 16.489-32.566 13.905-47.231 7.946-7.979-3.237-15.004-9.306-17.478-17.81-2.8-9.566 2.092-19.22 8.168-26.401a59.222 59.222 0 0 1 9.46-8.689c3.618-2.735 7.397-4.277 11.793-2.601 3.467 1.326 8.318 4.32 8.281 8.518-.035 3.781-2.636 7.238-5.614 9.333-2.827 1.989-6.465 3.111-9.907 2.365-5.048-1.094-9.977-3.753-14.166-6.712-1.7-1.2-3.589-2.541-4.471-4.511-1.013-2.244-.184-5.174.592-7.376 1.401-3.964 4.474-6.712 4.375-11.175-.158-7.102-4.998-13.369-9.693-18.293-5.524-5.762-12.317-10.829-19.908-13.423a28.856 28.856 0 0 0-10.176-1.514c-4.557.096-9.181.674-13.138 3.027-1.408.834-3.011 1.214-3.811 2.778a5.913 5.913 0 0 0-.407 3.959c.584 2.331 1.928 4.792 2.929 6.991a112.652 112.652 0 0 0 3.433 6.877c5.296 9.766 11.859 18.707 18.407 27.653 1.595 2.207 3.055 4.49 4.794 6.581 1.485 1.784 3.344 3.777 5.725 4.232 2.822.549 5.192-1.685 6.654-3.838 1.641-2.43 2.323-5.393 2.556-8.282.563-6.924-1.117-14.075-3.522-20.525a46.755 46.755 0 0 0-3.898-8.2c-.036-.06-.081-.092-.12-.07-2.289 2.037-1.813 6.717-1.718 9.448.057 1.962.251 3.888.374 5.837a45.967 45.967 0 0 1-.337 7.267c-.633 6.51-2.222 13.452-6.713 18.456-1.963 2.186-4.237 3.773-7.122 4.371-1.742.365-4.559.443-5.539 2.218-.142.246-.087.986.162 1.168 14.29 10.476 29.119 20.864 37.764 36.783 3.209 5.905 6.252 12.711 5.412 19.591-.754 6.253-5.073 12.932-11.555 14.277-6.285 1.305-12.735-2.117-17.365-6.096-6.315-5.427-11.622-12.768-12.359-21.285-.584-6.641 2.242-12.573 3.096-19.02a20.044 20.044 0 0 0-.267-7.114c-.747-3.261-2.536-6.179-4.17-9.052-3.974-6.976-8.358-14.177-14.738-19.224-5.08-4.014-11.947-7.695-18.634-6.372-.132.027-.103.391-.096.466.493 8.003 2.872 15.602 6.002 22.96 1.657 3.903 3.407 7.756 5.107 11.664 1.457 3.324 3.376 5.917 7.087 6.664l.022-.038c5.35-7.396 6.003-21.761-2.351-27.356-.073-.042-.102.032-.122.078-1.331 3.341.279 6.869 1.913 9.787 2.593 4.611 4.85 9.291 5.667 14.593.515 3.033.077 6.15-1.254 8.924a9.736 9.736 0 0 0-1.004 5.08 30.97 30.97 0 0 0 1.553 6.814 34.77 34.77 0 0 1 1.681 9.544c.136 6.247-1.601 11.908-3.264 17.83a33.685 33.685 0 0 1-3.776 8.979c-.764 1.212-1.06 2.604-1.848 3.802a6.684 6.684 0 0 1-3.864 2.761c-1.956.536-3.099.32-4.397-1.297l-3.568-4.447a14.07 14.07 0 0 1-2.597-4.715l-1.797-5.399c-1.933-5.811-3.977-11.783-4.238-17.96-.229-5.33 1.683-9.667 4.439-14.051a39.975 39.975 0 0 1 3.782-5.213c.884-.995 2.371-2.78 3.894-2.344-.068-.394-.134-.792-.208-1.188-1.048 1.916-2.05 3.852-3.27 5.663-.907 1.348-2.68 4.241-4.656 3.686l.265.745c-.353-3.421-.343-6.971-1.249-10.325-.907-3.353-2.861-5.974-5.367-8.328-5.127-4.812-11.188-7.27-18.198-5.567-.238.056-.056.798-.016.93 1.93 6.293 5.622 12.109 9.97 17a34.674 34.674 0 0 0 7.666 6.664 25.258 25.258 0 0 0 4.162 1.869c1.983.766 2.616 2.154 3.08 4.203.173.814.378.09.276-.368-.292-1.288-.605-2.716-1.476-3.759-.733-.88-1.793-1.196-2.836-1.573-3.192-1.155-5.906-3.205-8.35-5.522-5.433-5.163-10.083-11.958-12.291-19.163l-.016.93c5.984-1.453 11.489.053 16.239 3.902 2.703 2.204 5.304 4.773 6.531 8.106 1.227 3.333 1.154 7.169 1.522 10.732.012.168.045.669.265.745 1.902.526 3.624-2.133 4.507-3.406a64.312 64.312 0 0 0 3.52-6.007c.128-.222.1-1.1-.209-1.188-1.877-.537-3.851 2.214-4.816 3.407a53.366 53.366 0 0 0-4.54 6.872c-3.139 5.514-3.447 11.35-2.331 17.506a88.289 88.289 0 0 0 3.329 12.304l2.24 6.747c.255.993.586 1.965.991 2.907.611 1.17 1.872 2.329 2.677 3.34l2.248 2.791c.484.6 1.195 1.975 1.886 2.304.692.328 2.486-.128 3.148-.305a7.109 7.109 0 0 0 2.489-1.226c1.799-1.412 2.22-3.51 3.304-5.399a37.312 37.312 0 0 0 2.892-5.946c2.657-7.419 4.725-15.436 4.188-23.374-.249-3.746-1.321-7.137-2.338-10.722-.68-2.399-1.305-4.959-.31-7.35.676-1.629 1.475-3.091 1.781-4.857.53-3.045.064-6.215-.691-9.185a40.091 40.091 0 0 0-3.383-9.125c-.764-1.418-1.618-2.767-2.391-4.204a19.652 19.652 0 0 1-1.081-2.316c-.279-.753-1.209-3.965-.051-4.223 1.158-.257 3.006 2.759 3.52 3.64a16.241 16.241 0 0 1 2.013 7.131c.275 4.392-.642 9.156-2.968 12.939-1.421 2.293-4.737-.709-5.813-2.186-1.456-2.024-2.231-4.503-3.228-6.764-4.258-9.637-8.668-19.155-9.32-29.823l-.096.466c6.526-1.275 13.153 2.185 18.16 6.046 6.287 4.852 10.579 11.756 14.526 18.556 2.155 3.72 4.642 7.556 4.777 11.968.117 3.361-.829 6.649-1.676 9.865-1.69 6.382-2.421 12.649-.391 19.07 2.206 6.985 7.163 13.14 12.907 17.595 4.761 3.674 11.339 6.675 17.408 4.718 6.069-1.957 9.753-8.371 10.476-14.335.663-5.605-.931-11.233-3.179-16.307a72.724 72.724 0 0 0-15.713-22.36c-7.538-7.408-16.225-13.484-24.72-19.714l.162 1.168c1.148-2.09 4.969-1.923 6.989-2.526 2.962-.907 5.475-3.522 7.19-5.992 3.88-5.606 5.03-12.622 5.497-19.28.305-4.371-.255-8.592-.238-12.956a22.96 22.96 0 0 1 .234-3.602c.1-.631.357-2.547 1.07-2.901.798-.401 2.745 4.537 3.12 5.436a52.912 52.912 0 0 1 4.15 16.463c.36 5.057-.243 10.703-4.048 14.431-3.299 3.24-6.848 1.745-9.638-1.243-3.222-3.455-5.791-7.717-8.577-11.525-4.592-6.273-9.07-12.653-13.028-19.357a117.921 117.921 0 0 1-5.664-10.731c-1.338-2.92-4.894-8.614-.986-10.815.475-.266.983-.333 1.461-.559.778-.367 1.46-1.035 2.266-1.419a20.268 20.268 0 0 1 4.702-1.459 41.357 41.357 0 0 1 9.311-.697c5.479.179 10.749 2.348 15.404 5.125a57.574 57.574 0 0 1 13.013 10.671c4.024 4.394 8.896 10.494 8.409 16.806-.268 3.473-2.815 5.99-4.094 9.085a16.991 16.991 0 0 0-1.311 6.627c.189 5.511 5.814 8.579 10.111 10.918 4.893 2.665 10.631 5.283 16.178 3.173 4.188-1.596 7.855-5.184 8.829-9.645.925-4.264-.902-7.596-4.345-10.098a16.003 16.003 0 0 0-7.043-3.018c-2.806-.366-5.452.898-7.723 2.424-9.396 6.326-18.701 16.795-19.851 28.513-1.106 10.939 5.55 21.111 15.075 26.07 5.174 2.704 11.04 4.386 16.779 5.352 6.186 1.038 12.669 1.217 18.793-.31 5.507-1.373 10.577-4.306 13.907-8.982 3.101-4.346 4.576-9.663 5.096-14.92.964-9.735-.54-20.855-5.554-29.372a46.345 46.345 0 0 0-24.619-20.002 32.347 32.347 0 0 0-7.495-1.601c-2.495-.212-5.867-.466-8.081.873a4.686 4.686 0 0 0-1.964 2.166c-.325.764-1.03 3.187-2.375 2.61-.672-.285-.805-3.765-.887-4.513-.178-1.653-.271-3.308-.406-4.956-.231-2.943-.908-5.837-1.063-8.788a23.008 23.008 0 0 1 .199-4.8c.134-.831.316-1.653.547-2.462.084-.358.196-.708.335-1.048.343-.728.312-.92.866-.388 1.069 1.023.763 3.76.745 5.094-.011 1.222-.074 2.446-.028 3.669.081 1.976.683 3.887 1.043 5.825.209 1.143.785 3.309.122 4.379-.403.643-.207.357-.817.223-.392-.091-.989-.783-1.325-1.047l-2.396-1.866c-3.132-2.452-6.271-4.869-9.32-7.42-3.923-3.287-8.97-6.465-11.063-11.34-1.094-2.561-.662-7.901 2.512-8.976 1.078-.362 2.424-.221 3.54-.226a83.56 83.56 0 0 1 4.879.128c3.482.196 7.16.499 10.462 1.686 3.135 1.121 5.62 3.367 7.61 5.982 3.797 4.997 6.13 11.039 10.834 15.324l.043.025c3.497-1.3 2.378-6.346.902-8.78-.614-.998-1.877-2.621-3.237-1.914-1.36.707.037 2.967.71 3.761 3.391 3.997 10.587 3.945 15.325 4.159 6.418.303 12.821 1.189 19.092-.76 6.936-2.164 11.491-7.291 15.064-13.391 2.252-3.845 4.243-7.906 1.101-11.855-1.667-2.094-3.967-3.814-6.023-5.51-2.428-2-4.931-3.927-7.543-5.673-4.102-2.755-9.176-5.999-14.365-5.078-5.633.98-11.063 4.547-15.173 8.401-3.575 3.351-7.078 7.96-6.31 13.157.011.07.102.637.25.581 8.099-2.765 13.86-10.927 18.644-17.575 2.584-3.596 5.524-7.05 7.615-10.963 2.092-3.912 2.365-7.639 2.191-11.927a8.837 8.837 0 0 1-.066-2.192c.134-.566.145.128.293.529a9.654 9.654 0 0 1 .525 4.516 18.76 18.76 0 0 1-1.632 5.49c-1.641 3.632-4.008 6.864-5.873 10.373-4.808 9.04-7.397 19.084-13.47 27.464-3.237 4.492-6.699-.652-8.789-3.46-2.691-3.573-5.534-7.015-8.098-10.683-5.848-8.354-12.36-19.356-7.309-29.574 4.675-9.457 15.915-10.288 25.267-9.976 4.704.102 9.362.95 13.8 2.513 3.889 1.429 7.958 3.617 10.063 7.335 1.302 2.301 2.875 7.197 6.117 7.319 1.884.078 3.617-1.307 5.107-2.261a57.103 57.103 0 0 1 6.523-3.412 64.833 64.833 0 0 1 11.904-3.984c3.469-.885 7.454-1.916 10.062-4.54a6.884 6.884 0 0 0 1.943-3.799c.044-.244.013-.835-.212-1.003-2.407-1.769-6.597-3.68-9.577-2.352-2.856 1.271-4.781 4.861-6.511 7.291-3.443 4.849-7.712 9.659-5.016 15.917 1.036 2.406 2.549 3.807 5.268 3.331 4.287-.741 8.11-2.772 12.494-3.148 2.92-.244 7.166-.546 7.819-4.162.333-1.835-.539-3.579-1.826-4.824-1.977-1.913-4.731-3.092-7.353-3.821a10.22 10.22 0 0 0-8.544 1.152c-3.445 2.024-6.453 5.061-10.599 5.458-4.027.402-7.838-1.598-11.423-3.141-3.922-1.686-7.934-3.494-11.045-6.493-3.468-3.352-5.148-8.085-5.93-12.756-.667-3.993-.52-8.848 2.413-11.979 2.179-2.337 5.498-2.962 8.561-2.808 6.88.338 15.887 4.291 17.647 11.636 1.684 7.109-1.937 14.428-.305 21.628.017.081.086.442.219.423 2.765-.334 4.818-2.776 6.365-4.887a41.078 41.078 0 0 0 4.011-6.946c1.532-3.322 2.357-7.046 6.429-7.994a9.538 9.538 0 0 1 6.218.85c4.33 2.024 7.713 5.701 11.37 8.68 3.26 2.654 7.268 5.483 11.699 4.825 3.302-.505 5.82-2.538 5.509-6.043-.311-3.505-2.529-6.76-4.616-9.496a104.709 104.709 0 0 0-7.668-8.665c-2.836-2.975-5.345-6.662-9.143-8.495a6.831 6.831 0 0 0-6.422-.016c-3.326 1.817-4.659 5.595-6.556 8.648-1.609 2.596-3.985 5.109-7.02 5.942-3.619.998-6.406-.958-8.429-3.805-1.774-2.497-3.238-5.253-4.872-7.849-1.955-3.097-4.27-6.685-4.242-10.476.022-6.278 6.459-13.528 12.804-13.833 5.687-.293 10.313 4.629 11.605 9.833 1.186 4.775-2.617 9.635-.795 14.289.741 1.869 3.307 3.24 4.915 1.603.831-.839 1.293-2.039 1.909-3.028 1.172-1.896 2.585-3.653 3.795-5.527 2.158-3.347 2.986-7.332 5.144-10.647.819-1.263 2.023-2.813 3.399-3.504 1.18-.606 2.469-.221 3.677.071 3.245.774 6.239 1.917 9.631 1.399a66.247 66.247 0 0 0 6.623-1.322c3.027-.786 8.071-2.203 7.251-6.298-.41-2.031-2.041-3.628-3.553-4.92a18.889 18.889 0 0 0-7.052-3.962c-2.358-.66-4.986-.666-7.037.838-1.778 1.309-2.845 3.535-4.02 5.347-1.917 2.964-7.236 11.085-11.095 5.904-.841-1.128-1.444-2.422-2.174-3.621a13.273 13.273 0 0 0-2.907-3.242 23.549 23.549 0 0 1-4.181-4.189 35.606 35.606 0 0 1-2.246-3.908c-.955-1.799-2.006-3.789-.569-5.699.967-1.307 2.752-1.569 4.27-1.446 4.006.326 6.757 2.969 9.099 5.987 1.508 1.944 3.798 5.409 6.594 5.511.904.027 1.266-.555 2-1.09a26.411 26.411 0 0 1 3.034-1.914c1.764-.982 3.615-1.804 5.43-2.654a58.902 58.902 0 0 0 9.121-5.392c1.972-1.376 4.528-2.685 5.61-4.949 2.089-4.454-3.405-9.388-6.496-11.687-2.289-1.695-5.143-3.29-8.105-2.995-2.963.297-3.945 2.933-4.488 5.456-.875 3.933-1.744 7.889-2.542 11.834-.764 3.797-1.055 7.675-1.644 11.503-1.279 8.266-2.997 17.179-7.318 24.429-3.907 6.556-9.58 11.79-14.362 17.667-5.563 6.829-10.607 14.06-16.206 20.874-5.6 6.814-11.797 13.302-17.669 19.965-11.365 12.876-22.265 26.252-31.051 41.047-2.191 3.694-4.118 7.534-6.605 11.051a79.581 79.581 0 0 1-8.376 9.861c-6.081 6.189-12.731 11.869-19.33 17.494-6.978 5.948-14.079 11.753-20.966 17.811-6.887 6.057-13.444 12.344-20.071 18.61-13.096 12.378-25.828 25.127-36.902 39.406-5.298 6.827-10.353 13.833-15.535 20.747-.195.26.172 1.263.253 1.155l.008-.014Z"/><path d="M101.594 379.885c.258-4.714.7-9.424.712-14.145a52.155 52.155 0 0 0-1.883-13.951c-2.658-9.767-6.517-19.148-10.525-28.427-1.967-4.558-3.91-9.134-5.905-13.701-1.819-4.125-3.802-8.254-6.428-11.938a23.745 23.745 0 0 0-4.299-4.688 52.936 52.936 0 0 0-5.66-3.853c-3.798-2.334-7.53-4.662-11.622-6.408a34.027 34.027 0 0 0-12.668-2.946 16.573 16.573 0 0 0-9.71 3.193 10.136 10.136 0 0 0-3.331 3.91 10.993 10.993 0 0 0-.781 4.695 32.222 32.222 0 0 0 2.573 11.262 40.284 40.284 0 0 0 6.393 10.329c2.879 3.591 5.462 7.417 9.361 9.965 1.907 1.242 3.942 2.275 5.853 3.521a48.027 48.027 0 0 1 5.57 4.277 53.798 53.798 0 0 1 4.831 4.802c1.099 1.239 1.806 2.709 2.815 4.037.725.972 1.735 2.018 3.05 2.025.728.009 1.269-.136 1.467-.858.299-1.132.515-2.284.646-3.448.502-4.212-.022-8.373-.43-12.558a54.398 54.398 0 0 1 .25-14.245 42.559 42.559 0 0 1 1.693-6.888c.27-.79.488-2.182 1.364-2.429a2.959 2.959 0 0 1 1.48-.078c2.1.493 2.892 3.433 3.345 5.212a47.133 47.133 0 0 1 1.187 8.404c.163 2.358.252 4.711.49 7.061a49.666 49.666 0 0 0 1.132 6.951 58.903 58.903 0 0 1 1.4 6.81c.54 4.312.225 8.825 1.569 13.004 1.23 3.817 3.8 6.696 6.028 9.912 1.567 2.288 3.306 5.125 6.03 6.157.96.362 3.029.656 3.455-.539a9.749 9.749 0 0 0 .328-4.879c-.597-3.478-2.634-6.512-4.365-9.518a19.76 19.76 0 0 1-2.347-5.549c-.528-2.35-.672-4.762-1.085-7.123-.85-4.865-2.61-9.572-4.378-14.163-1.723-4.468-3.809-8.843-5-13.499-1.087-4.255-1.087-8.655-.703-13.007a63.251 63.251 0 0 1 2.559-13.245c1.147-3.692 2.623-7.574 5.515-10.265a17.181 17.181 0 0 1 10.129-4.443c4.207-.357 7.693 1.258 11.108 3.576a31.507 31.507 0 0 1 9.69 10.098c1.688 2.904 2.473 6.167 1.603 9.479-.754 2.91-2.573 5.436-4.706 7.504a28.966 28.966 0 0 1-7.651 5.231c-3.173 1.519-6.482 2.316-9.927 2.99-8.574 1.694-17.635 2.85-26.294 1.137-3.058-.608-6.778-1.495-8.332-4.508-1.287-2.493-.182-5.354 1.156-7.572a32.292 32.292 0 0 1 5.77-6.651 58.326 58.326 0 0 1 6.793-5.083c2.301-1.579 5.132-3.707 5.201-6.78.092-4.192-4.852-5.889-5.861-9.655-1.044-3.896.835-8.131 2.2-11.722a56.159 56.159 0 0 1 6.487-11.847 138.668 138.668 0 0 1 9.004-11.228c2.69-3.123 5.611-6.132 7.99-9.506 1.78-2.516 3.339-5.494 3.284-8.652-.053-3.362-2.038-6.084-4.611-8.078-5.29-4.096-12.4-4.837-18.846-3.998a43.776 43.776 0 0 0-18.852 7.118c-2.476 1.671-5.08 3.673-6.241 6.521-1.105 2.694-.886 5.689-.093 8.437a32.38 32.38 0 0 0 4.072 8.455 39.056 39.056 0 0 0 5.7 7.15 38.064 38.064 0 0 0 9.038 6.504c2.915 1.49 6.578 2.923 9.914 2.257 4.266-.849 5.408-5.689 7.894-8.602 3.417-4.015 7.787-7.082 11.095-11.231 1.57-1.962 3.051-4.169 5.223-5.513a8.073 8.073 0 0 1 6.189-1.006c3.584.956 5.831 4.383 6.961 7.685a27.298 27.298 0 0 1 1.398 10.79c-.254 3.481-1.382 7.306-4.431 9.347-3.05 2.04-6.732 1.934-9.392-.689-2.795-2.758-4.254-6.958-5.447-10.619-1.333-4.197-2.095-8.927-.777-13.215 1.274-4.134 4.104-7.71 6.784-11.025 1.272-1.569 2.842-2.862 3.591-4.784.69-1.762.263-3.597.741-5.36.627-2.289 2.487-4.141 4.022-5.853a74.817 74.817 0 0 0 3.487-4.123c1.841-2.32 4.429-5.354 4.17-8.527-.216-2.556-2.223-4.448-4.267-5.744-4.847-3.068-10.658-4.121-16.112-5.604-.1-.026-.258-.02-.331.073-1.754 2.203-.052 5.36 1.172 7.372 2.003 3.305 4.63 6.23 7.214 9.085 1.076 1.188 2.177 2.357 3.232 3.558 1.056 1.202 1.926 2.592 3.017 3.788.923 1.008 2.164 1.822 3.519 1.124a7.804 7.804 0 0 0 2.348-2.24 29.328 29.328 0 0 1 3.418-3.603 25.49 25.49 0 0 1 8.751-5.02 9.95 9.95 0 0 1 5.527-.025c3.866.946 8.216 3.104 10.462 6.523 2.634 4.016-.851 7.767-4.382 9.639-4.132 2.2-9.46 3.273-13.919 1.483-2.705-1.086-4.834-3.08-6.946-5.026-2.112-1.946-5.093-3.5-6.524-6.057-1.958-3.504 1.208-7.194 3.648-9.471 2.892-2.691 6.243-4.809 9.468-7.063 1.516-1.055 2.985-2.219 4.461-3.349 1.842-1.419 3.462-2.966 3.937-5.316.306-1.643.452-4.023-1.079-5.126-.615-.451-2.015-.732-2.666-.252a3.15 3.15 0 0 0-.565 1.236c-.202.527-.41 1.089-.605 1.639-.955 2.767-2.86 8.485.763 10.23 1.686.812 4.042.352 5.698-.332a20.183 20.183 0 0 0 3.149-1.822c2.673-1.724 5.314-3.634 8.292-4.861 1.085-.441 2.383-.907 3.593-.652 1.21.254 1.674 1.345 1.84 2.483.274 1.754-1.938 2.097-3.199 1.652-1.603-.565-2.921-1.802-4.046-3.017a12.879 12.879 0 0 1-2.588-3.707c-.985-2.427.576-4.607 1.995-6.464 1.235-1.615 2.326-3.314 3.507-4.96 1.182-1.646 2.542-3.266 4.309-4.176 1.935-.979 3.843-.463 5.531.769l-.339-.659c.067.907-.626 1.851-1.142 2.556a15.794 15.794 0 0 1-2.873 2.96c-1.301 1.05-4.605 3.375-5.867 1.115-.399-.7-.985.036-.653.62 1.708 3.012 5.467.68 7.344-.867a15.415 15.415 0 0 0 3.327-3.713c.343-.523.594-1.1.742-1.708.174-.87-.127-1.263-.865-1.734a5.617 5.617 0 0 0-5.404-.599c-1.747.799-3.124 2.313-4.275 3.829-1.284 1.677-2.363 3.492-3.633 5.177-1.342 1.747-2.886 3.608-2.921 5.929-.044 3.274 2.979 6.493 5.372 8.376 1.156.905 2.653 1.834 4.174 1.683a2.964 2.964 0 0 0 1.764-.828c.709-.671.781-1.208.653-2.144-1.042-7.721-10.232-1.328-13.569.843-2.623 1.701-5.755 4.164-9.125 3.382-2.198-.503-2.031-2.999-1.745-4.776.222-1.19.531-2.361.924-3.506.203-.596.419-1.192.644-1.783.28-.719.421-1.242 1.332-1.193 2.577.105 1.403 4.611.542 5.902-1.375 2.069-3.775 3.43-5.69 4.942-3.004 2.363-6.331 4.282-9.306 6.694-2.742 2.231-6.01 5.206-6.318 8.971-.174 2.106.794 3.983 2.24 5.468a32.828 32.828 0 0 0 3.421 2.863c1.235.97 2.349 2.07 3.522 3.114 2.133 1.875 4.362 3.496 7.085 4.316a14.62 14.62 0 0 0 6.601.209c4.287-.741 9.46-2.739 11.604-6.808 1.868-3.559-.228-7.136-3.016-9.46-3.12-2.618-7.35-4.559-11.455-4.735-2.509-.111-4.879.965-7.049 2.105a26.53 26.53 0 0 0-7.633 6.09c-1.061 1.214-2.876 4.392-4.858 2.945-1.392-1.009-2.279-2.737-3.353-4.019-2.295-2.708-4.831-5.246-7.101-7.998a40.978 40.978 0 0 1-3.585-4.932c-.744-1.24-1.621-2.762-1.579-4.25a2.503 2.503 0 0 1 .113-.764c.046-.123.1-.242.162-.357.153-.266-.023-.161.094-.164a11.03 11.03 0 0 1 2.139.54c2.01.517 4.025 1.038 6.015 1.659a35.94 35.94 0 0 1 6.425 2.596c1.63.897 3.425 2.055 4.253 3.774.953 1.959-.061 4.005-1.099 5.702a48.62 48.62 0 0 1-4.276 5.68c-1.9 2.254-4.306 4.293-5.526 7.043a9.21 9.21 0 0 0-.652 3.669 7.151 7.151 0 0 1-1.258 4.162c-.812 1.139-1.888 2.088-2.762 3.178a106.215 106.215 0 0 0-2.532 3.272 28.442 28.442 0 0 0-4.173 7.528c-1.842 5.42-.474 11.484 1.463 16.674 1.558 4.174 3.71 9.526 8.314 11.122 4.402 1.532 8.95-1.643 10.646-5.617 1.902-4.408 1.621-9.715.545-14.312-.987-4.262-3.076-8.921-7.285-10.844a8.535 8.535 0 0 0-7.25.214c-3.105 1.546-4.873 4.674-7.074 7.204-2.321 2.674-5.034 4.966-7.575 7.429a27.543 27.543 0 0 0-3.277 3.569c-.857 1.184-1.536 2.484-2.305 3.725-.768 1.242-1.665 2.473-2.966 3.189a6.906 6.906 0 0 1-4.09.623 19.749 19.749 0 0 1-7.026-2.314 34.97 34.97 0 0 1-11.44-9.363c-4.692-6.099-11.067-16.257-3.843-22.853a37.546 37.546 0 0 1 11.444-6.9 41.354 41.354 0 0 1 14.241-3.053c4.526-.108 9.206.709 13.088 3.144 2.076 1.295 4.083 3.065 4.94 5.424.767 2.103.413 4.387-.422 6.414a24.295 24.295 0 0 1-3.776 5.982c-1.913 2.343-3.94 4.595-5.903 6.883-4.121 4.754-8.18 9.601-11.526 14.938a52.187 52.187 0 0 0-4.319 8.383 44.074 44.074 0 0 0-2.477 7.632c-.47 2.398-.428 4.898.657 7.14a12.07 12.07 0 0 0 2.378 3.012c1.044 1.054 2.35 2.18 2.718 3.68.525 2.232-1.202 4.11-2.753 5.414-1.737 1.461-3.711 2.585-5.557 3.867a36.488 36.488 0 0 0-8.016 7.779c-2.074 2.746-3.962 6.338-2.712 9.832 1.544 4.333 6.508 5.539 10.557 6.224 5.45.921 10.914.737 16.394.113 3.368-.384 6.718-.939 10.038-1.621a42.111 42.111 0 0 0 6.909-1.864c7.03-2.74 15.036-8.64 15.41-16.876.217-5.02-2.792-9.646-6.107-13.174a36.806 36.806 0 0 0-7.258-6.01c-2.214-1.401-4.506-2.602-7.123-2.981a17.571 17.571 0 0 0-13.443 4.022c-4.016 3.38-5.772 8.805-7.055 13.724a62.388 62.388 0 0 0-2.065 17.557c.215 6.312 2.592 12 4.93 17.763 2.588 6.381 4.94 12.834 5.82 19.69.384 2.987.893 5.848 2.304 8.541 1.118 2.118 2.458 4.12 3.527 6.268 1.069 2.148 1.979 4.693 1.564 7.206-.065.413-.123 1.216-.446 1.473-.322.258-1.261.192-1.67.13a5.3 5.3 0 0 1-2.664-1.423c-1.56-1.409-2.676-3.23-3.869-4.941-1.569-2.251-3.386-4.284-4.586-6.784-1.438-2.991-1.713-6.135-1.931-9.4a63.787 63.787 0 0 0-.948-8.619c-.657-3.196-1.565-6.268-1.938-9.532-.227-1.835-.352-3.657-.444-5.492a59.694 59.694 0 0 0-1.26-10.819c-.586-2.461-1.725-6.47-4.772-6.807a3.703 3.703 0 0 0-1.976.325c-.48.251-.583.809-.755 1.308a32.485 32.485 0 0 0-.789 2.201 45.925 45.925 0 0 0-1.928 9.377 50.375 50.375 0 0 0-.048 9.421c.245 2.972.652 5.933.782 8.916a36.452 36.452 0 0 1-.049 4.307 25.714 25.714 0 0 1-.307 2.459c-.09.489-.126 1.767-.524 2.11-.397.343-1.226.064-1.567-.114a3.892 3.892 0 0 1-1.168-1.053 30.123 30.123 0 0 1-1.734-2.667c-1.478-2.308-3.673-4.288-5.7-6.115a48.236 48.236 0 0 0-7.395-5.594c-2.514-1.516-5.19-2.842-7.379-4.833a30.06 30.06 0 0 1-3.366-3.873c-1.138-1.448-2.32-2.864-3.47-4.306a37.45 37.45 0 0 1-4.744-7.19 37.533 37.533 0 0 1-2.738-7.768c-.575-2.481-.977-5.182-.527-7.721.449-2.538 2.393-4.58 4.572-5.902a16.57 16.57 0 0 1 7.191-2.363c2.846-.229 5.827.347 8.565 1.085 6.024 1.664 11.309 4.921 16.58 8.17 2.71 1.668 5.459 3.377 7.601 5.772a39.548 39.548 0 0 1 5.33 8.146c3.053 5.853 5.448 12.034 8.06 18.07 2.78 6.416 5.519 12.834 7.847 19.44 2.217 6.187 4.398 12.624 4.882 19.207.45 6.216-.226 12.444-.566 18.648-.037.621.888 1.091.931.293l-.018.009Zm104.824-113.601c4.75 1.336 9.575 2.39 14.449 3.158 2.373.347 4.79.617 7.209.772 2.486.15 5.011.122 7.517.205 10.325.32 20.57 1.803 30.872 2.464 8.907.57 18.167.841 26.877-1.379a53.186 53.186 0 0 0 6.347-2.08c1.663-.653 3.394-1.423 4.633-2.766 2.738-3.038 1.97-8.247.297-11.599-1.34-2.671-3.597-5.389-6.893-4.829-1.44.339-2.829.87-4.127 1.579a32.38 32.38 0 0 0-5.534 3.09 9.863 9.863 0 0 0-3.85 5.142c-.526 1.947.108 4.069-.971 5.871-.821 1.366-2.305 2.612-1.85 4.386.187.79 1.444 1.297 2.154 1.559a18.21 18.21 0 0 0 2.853.63c4.737.896 9.078 3.216 13.258 5.533 4.423 2.444 8.757 5.197 12.028 9.124 2.213 2.661 4.118 6.237 3.51 9.797a6.887 6.887 0 0 1-2.597 4.431c-1.298.91-2.96.992-4.477.791-3.281-.434-6.274-1.956-9.358-3.054-4.363-1.555-8.798-3.266-12.451-6.185-3.791-3.026-6.08-7.093-7.387-11.714a21.469 21.469 0 0 0-2.48-5.966c-.972-1.513-2.119-3.224-3.709-4.148-1.746-1.008-3.72-.418-5.584-.877l.551.705c1.408-2.005 4.168-2.495 5.504-4.541.939-1.439.605-3.356.144-4.908-.46-1.552-1.384-3.507-2.924-4.416a4.165 4.165 0 0 0-4.829.622 7.005 7.005 0 0 0-1.999 5.278c.066 2.115 1.415 4.032 2.885 5.453 3.415 3.387 8.143 4.702 12.819 5.08 9.439.741 18.52-2.545 27.737-3.926 2.337-.349 4.601.309 6.933.369 1.737.044 3.932-.56 4.398-2.471.157-.925.186-1.867.086-2.8a28.688 28.688 0 0 1 .055-3.615 23.874 23.874 0 0 1 1.659-7.095 18.173 18.173 0 0 1 10.349-10.272c1.931-.75 4.151-1.398 6.234-1.006 2.323.434 3.693 2.46 4.298 4.61 1.354 4.795-1.3 9.972-5.099 12.853-2.006 1.524-4.462 2.325-6.943 1.71-1.756-.435-3.622-1.224-5.438-.664a1.442 1.442 0 0 0-1.386 1.227c-.033.223-.013.449.057.663a3.34 3.34 0 0 0 .72 2.151c1.07 1.3 2.928 1.691 4.523 1.847 1.697.169 3.407.037 5.102.154 1.437.083 2.876.265 4.306.44 1.952.24 3.898.534 5.822.956a18.65 18.65 0 0 1 5.173 1.701 3.599 3.599 0 0 1 1.947 3.947 5.68 5.68 0 0 1-3.496 3.828c-2.19.852-4.497.125-6.325-1.188a22.302 22.302 0 0 1-2.566-2.24 27.693 27.693 0 0 0-2.717-2.212c-1.673-1.269-3.373-2.514-3.283-4.809.078-2.007 1.088-3.99 2.233-5.593a10.244 10.244 0 0 1 4.433-3.757c2.522-1.027 5.367-1.108 8.046-1.336 2.197-.186 4.819-.293 6.775-1.408a4.504 4.504 0 0 0 1.705-1.839c.471-.816 1.114-1.93 1.024-2.889-.032-.423-.181-.799.044-1.19.27-.448.67-.803 1.147-1.017.942-.517 1.946-.864 2.897-1.331a.277.277 0 0 0 .135-.366c-.919-1.817-2.962-2.913-2.438-5.202.414-1.832 2.156-3.122 3.824-3.761a5.859 5.859 0 0 1 4.938.298 5.852 5.852 0 0 1 2.944 3.976 6.918 6.918 0 0 1-1.587 5.612l.341-.124a5.488 5.488 0 0 1-2.439-.399c-.164-.094-.642-.113-.727.146-.804 3.62 4.582 4.608 6.009 7.116a2.96 2.96 0 0 1-1.514 4.272c-1.701.594-3.742.264-5.439-.194-2.146-.596-5.118-1.965-4.953-4.623.146-2.359 2.295-4.399 3.945-5.864a46.976 46.976 0 0 1 6.943-4.997c1.573-.963 3.236-1.772 4.724-2.868 2.105-1.551 4.161-3.174 6.413-4.511a14.656 14.656 0 0 1 3.412-1.6c.761-.204 1.725-.425 2.352.149.843.769.979 2.494.746 3.499-.425 1.851-2.246 3.121-3.807 3.976a13.47 13.47 0 0 1-5.073 1.734c-2.126.207-4.28-.251-6.386.211a6.12 6.12 0 0 0-2.701 1.335c-.415.352.661.916 1.037.599 1.987-1.67 4.596-1.276 7.015-1.243a13.625 13.625 0 0 0 5.64-1.247c1.792-.785 3.679-1.915 4.801-3.569a4.895 4.895 0 0 0 .364-4.486c-.952-2.428-3.659-2.196-5.674-1.391-2.722 1.084-5.142 2.936-7.478 4.687-.831.627-1.647 1.294-2.525 1.855-.783.5-1.627.913-2.426 1.384a56.971 56.971 0 0 0-7.379 4.983c-1.984 1.62-4.386 3.719-5.004 6.328-.65 2.718 1.525 4.611 3.775 5.659a14.814 14.814 0 0 0 5.38 1.299c1.61.086 3.683-.106 4.73-1.508 1.047-1.402.675-3.553-.506-4.795-1.318-1.404-3.161-2.166-4.518-3.515a2.304 2.304 0 0 1-.769-2.232l-.728.146a6.826 6.826 0 0 0 2.015.52c.705.06 1.205.142 1.634-.446a7.679 7.679 0 0 0 1.39-3.109 6.92 6.92 0 0 0-1.502-5.755c-2.998-3.506-8.969-3.403-11.739.381a4.278 4.278 0 0 0-.78 3.635c.399 1.458 1.783 2.315 2.447 3.638l.134-.367c-1.385.673-4.466 1.352-4.489 3.32-.006.401.182.799.079 1.19a8.167 8.167 0 0 1-.686 1.688 4.298 4.298 0 0 1-1.836 2.156 11.827 11.827 0 0 1-3.547.93c-1.277.195-2.575.282-3.864.387-2.521.21-5.127.423-7.473 1.435a10.725 10.725 0 0 0-4.338 3.715 12.37 12.37 0 0 0-2.35 5.262 4.977 4.977 0 0 0 1.607 4.614 32.108 32.108 0 0 0 2.872 2.301c.933.712 1.748 1.517 2.604 2.307 2.928 2.727 7.271 4.841 11.016 2.321a5.713 5.713 0 0 0 2.659-4.06 4.366 4.366 0 0 0-1.912-3.908 14.18 14.18 0 0 0-4.626-1.925 51.791 51.791 0 0 0-5.918-1.179 74.801 74.801 0 0 0-9.323-.752c-1.598-.028-3.87.018-5.108-1.18a2.752 2.752 0 0 1-.671-2.381c.125-1.04 1.669-1.018 2.486-.906 1.88.262 3.64 1.182 5.572 1.043a10.905 10.905 0 0 0 6.682-3.217c3.239-3.128 5.228-7.82 4.015-12.315-.553-2.049-1.799-3.991-3.751-4.944a8.792 8.792 0 0 0-5.638-.451 18.941 18.941 0 0 0-11.617 7.489c-2.734 3.888-3.919 8.671-3.952 13.373-.015 1.799.733 4.591-1.198 5.663s-4.577.252-6.708.077c-2.22-.189-4.434.327-6.601.749-2.323.459-4.635.977-6.953 1.472-4.664.992-9.388 1.899-14.174 1.889-4.786-.01-9.953-.897-13.672-4.17-1.733-1.521-3.259-3.579-3.142-5.988.093-1.921 1.071-4.373 3.048-5.045 2.109-.712 3.329 1.24 4.02 2.919.69 1.678 1.289 3.96.175 5.523-1.371 1.917-4.011 2.412-5.388 4.363-.254.362.276.636.551.705 1.764.432 3.869-.25 5.389.95 1.353 1.064 2.371 2.655 3.244 4.117 1.096 1.823 1.613 3.89 2.179 5.896a22.357 22.357 0 0 0 11.167 13.812c3.415 1.939 7.116 3.137 10.759 4.571 4.776 1.876 12.253 5.28 15.572-.657 1.501-2.678 1.061-5.916-.164-8.63-1.577-3.484-4.397-6.398-7.387-8.716-3.871-3.033-8.328-5.451-12.739-7.593a41.563 41.563 0 0 0-6.368-2.506 29.989 29.989 0 0 0-3.226-.75 6.457 6.457 0 0 1-3.226-1.219l.185.313c-.451-2.048 1.371-3.164 2.089-4.866a8.36 8.36 0 0 0 .464-3.109 8.058 8.058 0 0 1 .609-3.282c.992-2.232 2.988-3.794 5.046-4.986a47.76 47.76 0 0 1 5.533-2.71c1.187-.497 2.625-1.005 3.878-.423 1.75.824 2.945 2.987 3.643 4.676a12.29 12.29 0 0 1 .76 7.372 6.334 6.334 0 0 1-3.269 4.236 32.836 32.836 0 0 1-6.585 2.572 50.12 50.12 0 0 1-6.67 1.526 78.44 78.44 0 0 1-13.766.716c-10.773-.18-21.438-1.648-32.17-2.422-2.748-.198-5.5-.345-8.256-.406-2.632-.053-5.249-.066-7.874-.288a102.674 102.674 0 0 1-15.53-2.701 116.49 116.49 0 0 1-3.823-.999c-.709-.197-.992.527-.261.731l.013.033Zm-70.287 76.957c7.387.875 14.871 1.325 22.088 3.24 6.621 1.758 12.902 4.535 18.999 7.612 3.156 1.596 6.255 3.302 9.444 4.809a102.971 102.971 0 0 0 10.122 4.159c2.677.934 5.395 1.718 8.082 2.601a50.186 50.186 0 0 0 7.921 2.11c2.305.353 4.761.343 6.453-1.517 1.883-2.058 2.273-5.119 3.412-7.581a16.322 16.322 0 0 1 10.592-8.955c8.905-2.223 18.212 3.716 21.649 11.856 1 2.316 1.53 4.808 1.556 7.33-.003 2.179-.384 4.744-2.01 6.346-1.915 1.879-4.66 1.008-6.698-.175-2.31-1.334-4.179-3.301-4.321-6.084a10.842 10.842 0 0 1 .621-3.906l-.666-.095a23.698 23.698 0 0 0 2.676 1.648c.801.462 1.868 1.021 2.056 2.01l.263-.189c-1.653-.478-2.579-1.804-3.514-3.148a12.417 12.417 0 0 0-2.72-3.088c-1.97-1.433-4.169-1.223-6.459-.989a7.64 7.64 0 0 1-3.319-.154c-.46-.163-.901-.346-.969-.875-.155-1.189 1.194-2.379 1.962-3.086a35.96 35.96 0 0 1 4.172-3.149c1.335-.908 2.614-1.919 3.954-2.804 2.594-1.719 5.471-2.792 8.3-4.027a33.674 33.674 0 0 0 4.135-2.115c1.146-.715 2.188-1.561 3.238-2.388.984-.757 2.054-1.542 2.679-2.647a3.89 3.89 0 0 0 .066-3.622c-1.372-2.76-4.98-3.062-7.317-4.617-.14-.081-.357-.206-.508-.068-3.138 2.562-3.955 6.85-4.433 10.665-.235 1.91-.627 3.96-.368 5.885a3.632 3.632 0 0 0 2.064 2.864c1.573.805 3.468 1.044 5.177 1.426 1.876.413 3.772.724 5.682.932 2.085.255 4.185.376 6.287.363 1.728-.019 3.741-.008 5.299-.845 1.557-.838 2.442-2.392 3.292-3.888.851-1.496 1.788-2.962 3.559-3.412l-.589-.205c.602.495.704 1.577.731 2.287a11.946 11.946 0 0 1-.377 3.217c-.443 1.88-1.192 4.013-2.555 5.439l.641.158c-2.336-1.657-2.141-4.935-3.899-7.049-.156-.187-.607-.576-.871-.374-2.156 1.662-2.514 4.465-2.044 6.994a14.65 14.65 0 0 0 3.853 7.409 9.87 9.87 0 0 0 8.436 2.8 6.46 6.46 0 0 0 4.559-2.649 8.606 8.606 0 0 0 1.115-2.9 6.821 6.821 0 0 0 .183-2.468c-.488-3.298-4.821-3.426-7.295-4.243l.727.78a16.927 16.927 0 0 1 7.801-5.357 19.181 19.181 0 0 1 9.589-1.011l-.693-.516c.612.9 1.083 2.034.576 3.092a3.669 3.669 0 0 1-2.302 1.758c-2.116.657-5.038.359-6.521-1.45-.128-.157-.492-.496-.729-.42-.236.076-.181.236-.037.409a7.542 7.542 0 0 0 5.486 2.608c1.673.078 3.822-.302 4.875-1.759a2.746 2.746 0 0 0 .317-2.254 4.8 4.8 0 0 0-.622-1.44 1.767 1.767 0 0 0-1.49-.918 19.79 19.79 0 0 0-9.013.984c-3.185 1.062-6.203 2.889-8.269 5.555-.227.294.541.712.729.775 1.235.424 2.519.651 3.768 1.018.968.282 1.761.637 1.999 1.694a5.425 5.425 0 0 1-.077 2.194 9.034 9.034 0 0 1-.954 2.845 5.937 5.937 0 0 1-3.852 2.729c-2.689.635-5.798.016-7.759-1.991a13.484 13.484 0 0 1-3.357-6.44c-.559-2.542-.243-5.395 1.949-7.075l-.868-.379c.959 1.158 1.249 2.65 1.773 4.014a7.239 7.239 0 0 0 2.575 3.461c.145.084.481.336.647.161 1.211-1.262 1.892-3.088 2.378-4.743.516-1.741.924-3.828.346-5.589a3.284 3.284 0 0 0-1.335-1.832c-.7-.404-1.803.425-2.32.886-1.403 1.261-2.014 3.166-3.122 4.629a5.666 5.666 0 0 1-2.358 1.855 10.4 10.4 0 0 1-3.437.55c-2.595.1-5.194-.019-7.769-.357a68.987 68.987 0 0 1-7.464-1.388c-.881-.201-2.01-.351-2.758-.905-.607-.453-.711-1.33-.756-2.032a26.423 26.423 0 0 1 .292-4.205c.169-1.407.341-2.819.625-4.212.574-2.788 1.629-5.575 3.883-7.406l-.51-.075a23.513 23.513 0 0 0 3.842 1.812c1.226.528 2.439 1.145 2.798 2.529.677 2.604-1.724 4.202-3.487 5.583a27.439 27.439 0 0 1-3.81 2.611c-1.355.743-2.767 1.362-4.183 1.965-2.843 1.215-5.708 2.41-8.188 4.278-2.48 1.867-5.284 3.426-7.517 5.623-.769.752-1.887 1.921-1.578 3.122.408 1.522 2.504 2.192 3.879 2.284 2.448.16 5.345-1.081 7.532.49 1.369.97 2.139 2.521 3.122 3.828a7.576 7.576 0 0 0 3.909 2.81c.164.05.299-.007.263-.189-.218-1.116-1.278-1.908-2.149-2.527-1.061-.702-2.266-1.211-3.272-1.998-.145-.084-.578-.379-.67-.098-.818 2.532-.939 5.247.582 7.559a12.922 12.922 0 0 0 6.973 4.933c2.15.599 4.312.13 5.549-1.813 1.326-2.039 1.503-4.741 1.303-7.101-.826-9.565-8.854-17.976-18.327-19.425a16.03 16.03 0 0 0-12.63 3.237 17.23 17.23 0 0 0-4.877 6.331c-1.132 2.562-1.541 5.876-3.759 7.78-2.034 1.752-5.038 1.162-7.431.617-2.679-.608-5.28-1.505-7.892-2.363-3.194-1.04-6.409-1.989-9.554-3.226a109.866 109.866 0 0 1-10.557-4.809c-6.316-3.286-12.649-6.544-19.394-8.875a69.293 69.293 0 0 0-10.274-2.716c-3.831-.694-7.722-1.107-11.562-1.53-1.89-.203-3.782-.402-5.672-.625-.288-.037-.114.308-.038.41.179.23.44.381.729.42l-.009-.018Z"/></g><defs><clipPath id="a"><path fill="#fff" transform="rotate(30 92.926 346.805)" d="M0 0h294.816v371.702H0z"/></clipPath></defs></svg>