<svg width="223" height="281" fill="none" xmlns="http://www.w3.org/2000/svg"><g clip-path="url(#a)" fill="#F1E0CE"><path d="M91.008 274.578c1.589-13.21 2.95-26.369 6.114-39.326 1.614-6.59 3.48-13.117 5.418-19.623 1.938-6.506 3.847-13.055 6.017-19.518 4.247-12.633 9.48-25.01 12.96-37.899a65.884 65.884 0 0 0 1.854-9.109c.388-3.146.295-6.262.291-9.42a155.19 155.19 0 0 1 1.289-19.484c1.597-12.764 4.719-25.199 7.066-37.823 1.222-6.553 1.946-13.18 2.818-19.792.755-5.693 2.385-11.256 2.95-16.975.585-5.895-.805-11.605-2.642-17.16-.927-2.808-2.001-5.57-3.164-8.295a94.635 94.635 0 0 1-3.181-8.97c-.396-1.284-.843-2.526-1.264-3.819-.379-1.15-.818-2.468-.497-3.685.657-2.505 3.981-2.99 6.16-2.926 2.438.048 4.836.623 7.032 1.684 1.314.67 2.157 1.567 1.942 3.12a10.42 10.42 0 0 1-1.024 2.906c-1.146 2.45-2.22 4.893-3.737 7.159-1.584 2.345-3.371 4.581-4.563 7.159-.278.598-.422 1.473-1.054 1.823-.551.311-1.601.257-2.22.185-1.403-.16-2.709-.754-4.007-1.263-2.157-.88-4.352-1.575-6.699-1.066-1.875.422-4.213 1.61-3.99 3.866.168 1.596 1.222 2.649 2.469 3.52 1.723 1.197 3.623 2.41 5.646 3.003 1.209.354 2.465.514 3.695.77 1.23.258 2.305.906 3.404 1.546 1.374.796 2.95 1.735 4.437.674 1.302-.922 1.732-2.758 1.98-4.211.265-1.947.418-3.906.459-5.87.102-1.803.422-3.462 1.905-4.67 1.635-1.327 3.889-1.71 5.936-1.718 1.875 0 4.69.172 6.224 1.394 2.785 2.21-3.531 7.158-4.997 8.388-1.61 1.364-3.165 2.472-5.221 3.057-1.706.484-4.571.606-5.511 2.35-1.112 2.072-.876 4.632-.556 6.885a29.08 29.08 0 0 1 .421 4.695c-.029 1.684-.269 3.369-.379 5.053-.126 1.946.493 5.352-2.654 4.767-2.238-.421-2.684-4.35-3.278-6.148-.99-3.007-3.657-5.453-6.573-6.586-3.455-1.343-7.361-.703-9.644 2.383-2.448 3.31-3.123 8.843-1.045 12.503 2.136 3.73 6.32 5.474 9.926 7.424 3.607 1.95 8.296 5.053 11.52.766 1.264-1.684 1.778-3.9 1.841-5.984.088-2.813-.535-6.021 1.264-8.46 2.431-3.314 7.163-1.835 10.39-.753 2.406.808 4.854 1.46 7.26 2.261 2.974.985 6.32 2.105 8.7 4.211 2.494 2.202 1.016 5.171-1.466 6.679-3.038 1.848-6.977 1.107-10.268.497-3.291-.611-6.88-1.63-10.26-.96a6.717 6.717 0 0 0-3.813 2.105c-1.626 1.853-1.213 4.16-.897 6.4.288 2.179.332 4.382.131 6.57-.182 2.05-.552 4.594-2.326 5.895l.307.19c-3.341-3.61-3.998-8.877-6.817-12.84-2.498-3.516-6.118-4.872-10.352-4.632-4.125.215-9.573 1.685-11.519 5.761-2.035 4.253 1.234 9.138 4.061 12.14 1.757 1.866 3.759 3.651 6.131 4.679 2.734 1.179 5.73 1.313 8.658 1.107 2.928-.206 5.937-.42 8.726-1.162 2.928-.783 4.845-2.594 6.206-5.26 1.193-2.332 2.107-5.305 4.462-6.762 1.719-1.062 4.016-1.42 5.996-1.487a9.241 9.241 0 0 1 3 .308c1.908.576 2.309 2.379 1.205 3.987-.767 1.112-1.964 1.853-3.051 2.611a23.06 23.06 0 0 0-3.745 3.335c-1.597 1.74-3.792 5.37-6.594 4.034-3.716-1.768-3.645-5.802-3.215-9.264.345-2.77.295-5.794 1.213-8.447 1.024-2.948 4.917-3.504 7.639-3.2l-.548-.611c1.795 4.923-4.55 9.306-7.457 12.305-2.343 2.42-4.306 5.343-6.029 8.228-1.096 1.84-2.052 5.175-4.816 4.497-2.292-.564-3.982-2.46-6.156-3.276-2.608-.981-5.629-.804-8.317-.316-5.857 1.061-11.423 3.908-16.163 7.454-2.448 1.831-4.634 4.097-5.768 6.986a13.283 13.283 0 0 0-.16 8.565c1.487 4.998 5.73 8.548 9.998 11.222 5.153 3.226 10.858 5.277 16.433 7.643 1.622.686 4.815 2.35 6.109.286.535-.842.472-1.97.535-2.947.134-1.809.157-3.625.067-5.437-.206-3.634-.8-7.23-1.234-10.839a78.159 78.159 0 0 1-.421-10.599c.067-4.8-.514-9.963-4.854-12.84-.215-.142-.181.047-.101.194.876 1.55 1.929 2.995 2.755 4.57a12.806 12.806 0 0 1 1.374 5.811c.067 3.284-.531 6.586-.843 9.849-.615 6.136-1.298 13.64-5.532 18.486l.388.287c-1.787-2.257-1.492-5.63-.932-8.271a27.303 27.303 0 0 1 3.548-8.628c1.264-2.055 2.907-4.266 5.094-5.424 2.781-1.474 6.43-1.305 9.476-1.124 3.419.234 6.818.697 10.175 1.385 1.53.299 3.253.531 4.525 1.504 1.445 1.103 1.429 3.234 1.445 4.884.051 4.03-.193 8.073-2.056 11.732-1.731 3.403-4.605 6.001-7.845 7.955a103.107 103.107 0 0 1-9.67 4.927c-2.78 1.297-7.659 3.571-10.305.897l.358.585c.467-1.84 2.839-.518 3.712.206.771.64 1.483 1.55 1.457 2.603.011.385-.101.764-.32 1.082-.569.623-2.157-.177-2.802-.421-5.561-2.106-10.773-7.184-17.135-6.283-2.95.421-5.773 1.794-8.38 3.137a64.204 64.204 0 0 0-3.532 1.958c-.93.552-1.912 1.091-2.127 2.236-.367 1.95.514 4.254 1.761 5.736 1.34 1.587 3.236 2.526 5.19 3.116 2.685.842 5.503 1.107 8.259 1.596 4.213.749 8.427 1.213 12.665 1.861a.041.041 0 0 0 .019.002.036.036 0 0 0 .017-.007.033.033 0 0 0 .011-.015.034.034 0 0 0 .004-.018c.143-1.149-.645-2.269-1.289-3.15-.986-1.339-2.259-2.442-3.249-3.789-1.491-2.005-2.654-6.532-5.595-6.936-.059 0-.055.059-.047.097.645 4.08 2.731 7.386 5.309 10.527 2.267 2.767 3.864 6.384 6.775 8.57 0 0 .122.092.156.055.738-.931.721-1.55.565-2.658-.266-1.89.948-3.162 2.397-4.147a22.85 22.85 0 0 1 7.812-3.327c5.831-1.339 12.1-.842 17.788.897 6.08 1.874 10.921 5.356 14.907 10.27 4.049 4.986 7.479 11.202 7.648 17.767.358 14.186-16.074 21.413-27.935 23.055-6.451.897-13.348-.421-18.185-5.053-5.452-5.205-5.898-13.374-4.634-20.373a44.739 44.739 0 0 1 2.911-9.264c1.336-3.159 3.227-5.597 6.741-6.161 2.773-.442 7.083-.316 8.646 2.447 1.407 2.488 1.011 5.735-.147 8.232-1.1 2.371-3.059 4.481-5.596 5.293-3.72 1.192-7.954 1.314-11.818.96-1.567-.143-3.312-.307-4.635-1.263-1.512-1.086-2.077-3.318-2.401-5.053-.582-3.125.391-6.085-1.361-8.97-2.79-4.59-8.33-6.863-13.268-8.312-5.798-1.684-12.164-2.434-18.118-1.263a21.804 21.804 0 0 0-7.238 2.855c-2.95 1.785-5.76 3.912-7.462 6.948-.607 1.078-1.513 1.933-1.445 3.259.08 1.03.515 2 1.23 2.746 1.264 1.305 3.076 2.408 4.563 3.47a84.836 84.836 0 0 0 4.85 3.204c7.162 4.392 14.843 7.765 22.516 11.147 1.879.842 3.699 1.785 5.629 2.497 1.647.606 3.619 1.208 5.351.606 2.056-.707 2.764-3.065 2.907-5.028.156-2.211-.518-4.409-1.458-6.388-2.25-4.746-6.054-8.792-10.07-12.106a35.339 35.339 0 0 0-5.654-3.896c-.046-.025-.088-.029-.105 0-.73 2.198 1.352 5.083 2.448 6.835.78 1.263 1.635 2.451 2.452 3.68a34.788 34.788 0 0 1 2.528 4.885c2.048 4.502 3.632 9.647 2.583 14.621-.46 2.172-1.349 4.072-3.013 5.554-1.003.897-2.819 2.013-2.79 3.546 0 .214.317.678.549.703 13.322 1.457 26.965 2.653 38.649 9.807 4.335 2.653 8.902 5.959 10.954 10.78 1.871 4.38 1.568 10.385-2.169 13.716-3.624 3.229-9.143 3.427-13.681 2.573-6.19-1.167-12.442-3.967-16.146-9.265-2.894-4.126-3.286-9.079-5.165-13.622a15.17 15.17 0 0 0-2.865-4.557c-1.724-1.852-3.999-3.086-6.156-4.35-5.242-3.065-10.837-6.122-16.925-7.015-4.846-.708-10.736-.522-14.616 2.872-.076.067.08.295.114.341 3.35 5.053 7.781 9.129 12.614 12.763 2.562 1.929 5.166 3.79 7.757 5.706 2.212 1.626 4.45 2.599 7.163 1.685v-.034c.708-6.864-4.298-16.515-11.886-17.021-.063 0-.055.059-.05.097.391 2.691 2.78 4.392 4.954 5.685 3.442 2.038 6.691 4.249 9.232 7.411a11.242 11.242 0 0 1 2.553 6.317 7.338 7.338 0 0 0 1.264 3.705 23.404 23.404 0 0 0 3.594 3.875 26.23 26.23 0 0 1 4.71 5.613c2.453 4.038 3.455 8.401 4.606 12.907.66 2.377.971 4.839.922 7.306-.042 1.082.291 2.105.228 3.187a5.052 5.052 0 0 1-1.487 3.268c-1.079 1.091-1.909 1.381-3.371.813l-4.02-1.562a10.667 10.667 0 0 1-3.484-2.106l-3.219-2.855c-3.463-3.074-7.062-6.211-9.569-10.157-2.165-3.402-2.553-6.965-2.405-10.877.037-1.625.206-3.245.505-4.843.202-.985.502-2.716 1.665-3.006-.194-.232-.388-.468-.586-.699.038 1.65.114 3.297 0 4.943-.085 1.226-.152 3.79-1.656 4.174l.455.387c-1.525-2.106-2.86-4.434-4.723-6.287-1.862-1.853-4.133-2.83-6.666-3.424-5.178-1.212-10.078-.53-14.026 3.234-.135.127.266.544.341.615 3.645 3.39 8.263 5.803 12.96 7.361 2.429.856 4.97 1.35 7.542 1.466a19.125 19.125 0 0 0 3.434-.35c1.589-.248 2.528.421 3.607 1.588.421.467.282-.085.042-.346-.678-.732-1.424-1.549-2.389-1.903-.813-.299-1.626-.105-2.452.042-2.528.451-5.081.135-7.559-.459-5.51-1.326-11.127-4.017-15.298-7.9l.34.615c3.372-3.213 7.547-4.308 12.114-3.584 2.604.421 5.28 1.121 7.344 2.839 2.065 1.718 3.468 4.257 5.056 6.451.072.105.282.421.455.387 1.445-.374 1.568-2.766 1.665-3.933.106-1.752.117-3.51.033-5.264 0-.193-.35-.758-.585-.699-1.433.358-1.686 2.906-1.867 4.051a40.34 40.34 0 0 0-.375 6.216c.03 4.796 2.035 8.733 5.094 12.342a66.756 66.756 0 0 0 6.834 6.797l4.02 3.571a14.933 14.933 0 0 0 1.748 1.528c.843.535 2.107.817 3.017 1.175l2.528.977c.543.211 1.529.842 2.107.796.577-.046 1.58-1.023 1.946-1.39a5.35 5.35 0 0 0 1.167-1.743c.645-1.604.127-3.137.122-4.784a28.11 28.11 0 0 0-.354-4.985c-1.066-5.862-2.742-11.892-6.096-16.887-1.58-2.358-3.565-4.173-5.587-6.135-1.353-1.314-2.73-2.754-2.983-4.695-.173-1.322-.202-2.582-.67-3.853-.805-2.194-2.309-4.093-3.927-5.753a30.297 30.297 0 0 0-5.667-4.695c-1.036-.64-2.107-1.2-3.156-1.848a14.942 14.942 0 0 1-1.584-1.108c-.468-.387-2.292-2.139-1.63-2.746.661-.606 3.012.67 3.682 1.053a12.274 12.274 0 0 1 4.015 3.908c1.842 2.771 3.042 6.237 2.95 9.593-.064 2.038-3.371 1.326-4.635.766-1.72-.775-3.164-2.105-4.673-3.209-6.434-4.699-12.922-9.264-17.384-16.001l.114.341c3.792-3.302 9.442-3.542 14.182-2.906 5.953.8 11.376 3.697 16.533 6.658 2.819 1.621 5.899 3.192 7.656 6.03 1.348 2.156 1.972 4.666 2.633 7.091 1.306 4.817 3.198 9.197 6.956 12.633 4.087 3.739 9.662 5.895 15.109 6.641 4.509.606 9.952.084 13.188-3.491 3.236-3.575 3.223-9.167 1.441-13.345-1.685-3.92-4.858-7.003-8.25-9.474a54.983 54.983 0 0 0-18.749-8.7c-7.74-2.001-15.728-2.695-23.65-3.563l.548.703c-.038-1.802 2.528-3.137 3.624-4.295 1.597-1.714 2.254-4.375 2.443-6.641.422-5.137-1.478-10.165-3.69-14.7-1.454-2.977-3.418-5.529-5.056-8.393-.467-.782-.871-1.6-1.21-2.446-.172-.451-.729-1.803-.396-2.304.371-.564 3.514 1.933 4.1 2.379a40.02 40.02 0 0 1 8.945 9.21c2.149 3.175 3.889 7.1 2.806 10.978-.935 3.369-3.826 3.731-6.784 2.83-3.417-1.045-6.712-2.864-9.977-4.304-5.38-2.371-10.727-4.855-15.855-7.748a89.389 89.389 0 0 1-7.77-4.885c-1.98-1.406-6.462-3.79-4.735-6.708.21-.354.518-.59.746-.918.37-.535.564-1.23.948-1.785a15.267 15.267 0 0 1 2.528-2.733 31.306 31.306 0 0 1 5.835-3.976c3.658-1.953 7.93-2.526 12.03-2.467 4.265.07 8.497.767 12.56 2.067 4.297 1.356 9.796 3.508 11.864 7.824 1.138 2.375.422 4.986.754 7.496.22 1.705.78 3.349 1.648 4.834 2.208 3.537 7.053 3.42 10.752 3.327 4.214-.105 8.962-.56 11.798-4.038 2.14-2.628 3.185-6.363 2.136-9.652-1.007-3.141-3.463-4.632-6.666-4.969a12.12 12.12 0 0 0-5.755.686c-1.976.821-3.232 2.649-4.142 4.506-3.762 7.694-5.898 18.065-2.22 26.171 3.413 7.58 11.62 11.724 19.735 11.37 4.412-.185 8.89-1.301 13.015-2.838 4.445-1.659 8.76-3.992 12.194-7.306 3.088-2.981 5.3-6.818 5.713-11.138.388-4.018-.657-8.056-2.305-11.694-3.05-6.738-8.241-13.45-14.747-17.131a35.078 35.078 0 0 0-23.691-3.789 24.412 24.412 0 0 0-5.515 1.785c-1.715.804-4.02 1.912-4.964 3.626a3.538 3.538 0 0 0-.467 2.16c.075.623.53 2.476-.569 2.607-.548.067-1.951-2.161-2.288-2.62-.742-1.015-1.428-2.063-2.14-3.091-1.264-1.84-2.802-3.478-4.02-5.352a17.35 17.35 0 0 1-1.685-3.217 16.118 16.118 0 0 1-.573-1.819 5.147 5.147 0 0 1-.177-.813c-.051-.606-.144-.72.421-.581 1.087.265 1.921 2.173 2.414 3.053.455.804.877 1.63 1.37 2.413.8 1.263 1.917 2.287 2.886 3.419.569.67 1.765 1.87 1.736 2.822-.021.572 0 .311-.451.454-.291.089-.944-.139-1.264-.185l-2.275-.316c-2.979-.421-5.95-.817-8.912-1.335-3.813-.669-8.321-.842-11.536-3.242-1.685-1.263-3.421-4.923-1.748-6.826.569-.644 1.504-1.061 2.233-1.487a63.572 63.572 0 0 1 3.244-1.76c2.355-1.187 4.879-2.379 7.491-2.851 2.478-.45 4.955.08 7.247 1.041 4.378 1.836 8.191 4.91 12.893 5.937h.038c1.799-2.173-.843-5.053-2.73-6.089-.78-.421-2.221-1.006-2.844-.03-.624.977 1.146 1.929 1.887 2.194 3.733 1.335 8.427-1.419 11.612-3.069 4.319-2.228 8.848-4.068 12.219-7.715 3.725-4.038 4.77-9.117 4.803-14.461.021-3.368-.21-6.779-3.762-8.177-1.884-.741-4.041-.998-6.03-1.331-2.346-.392-4.714-.707-7.086-.863-3.729-.253-8.28-.459-11.33 2.105-3.32 2.771-5.528 7.159-6.762 11.235-1.075 3.546-1.627 7.887.842 10.999.034.042.308.379.384.287 4.259-4.872 4.946-12.393 5.565-18.554.333-3.331.953-6.704.843-10.056-.109-3.352-1.34-5.895-3.076-8.637a6.69 6.69 0 0 1-.872-1.41c-.126-.421.143.03.392.236a7.303 7.303 0 0 1 2.052 2.758 14.186 14.186 0 0 1 1.007 4.21c.299 2.999-.03 6.01.076 9.012.269 7.736 2.372 15.29 1.563 23.072-.421 4.165-4.635 2.106-7.066 1.057-3.114-1.322-6.278-2.501-9.345-3.933-6.99-3.259-15.417-8.001-15.973-16.6-.514-7.958 6.535-12.75 12.779-16.081a33.635 33.635 0 0 1 9.99-3.571c3.088-.535 6.581-.64 9.366.998 1.724 1.015 4.606 3.625 6.775 2.48 1.264-.661 1.875-2.223 2.49-3.41a43.212 43.212 0 0 1 2.984-4.7 48.958 48.958 0 0 1 6.29-7.109c1.938-1.89 4.159-4.072 4.875-6.775a5.207 5.207 0 0 0-.164-3.222c-.064-.176-.308-.551-.519-.576-2.245-.249-5.713.084-7.162 2.08-1.391 1.912-1.294 4.99-1.509 7.234-.421 4.477-1.399 9.24 2.735 12.317 1.588 1.184 3.109 1.53 4.71.19 2.528-2.105 4.264-4.88 6.994-6.784 1.821-1.263 4.488-3.066 3.548-5.68-.476-1.327-1.706-2.14-3.021-2.468-2.018-.505-4.268-.236-6.261.278a7.727 7.727 0 0 0-5.161 3.983c-1.492 2.628-2.313 5.753-4.879 7.58-2.486 1.786-5.739 1.916-8.671 2.261-3.207.38-6.518.712-9.691-.075-3.539-.885-6.43-3.348-8.709-6.11-1.947-2.363-3.687-5.597-2.949-8.755.543-2.354 2.481-4.017 4.546-5.074 4.634-2.38 12.029-3.197 15.96.947 3.792 4.017 4.188 10.178 7.98 14.275.042.047.223.257.303.194 1.686-1.263 2.107-3.638 2.322-5.605a31.025 31.025 0 0 0 0-6.064c-.253-2.754-1.121-5.503 1.188-7.664a7.22 7.22 0 0 1 4.395-1.793c3.602-.312 7.209.816 10.731 1.385 3.139.505 6.834.842 9.488-1.263 1.972-1.58 2.853-3.862 1.323-6.039-1.529-2.177-4.213-3.47-6.615-4.472a79.226 79.226 0 0 0-8.3-2.775c-2.983-.876-6.021-2.341-9.202-2.106a5.162 5.162 0 0 0-4.213 2.418c-1.492 2.446-.935 5.423-1.024 8.14-.072 2.307-.678 4.85-2.351 6.543-1.993 2.022-4.559 1.794-6.96.695-2.107-.964-4.108-2.215-6.16-3.297-2.453-1.289-5.326-2.763-6.742-5.255-2.359-4.119-.885-11.299 3.156-13.897 3.615-2.341 8.507-.867 11.321 2.051 2.583 2.678 1.93 7.298 4.884 9.656 1.192.943 3.391.871 3.825-.809.228-.863.076-1.823.106-2.703.05-1.685.311-3.369.396-5.053.147-3.007-.818-5.93-.658-8.915.059-1.137.262-2.607.902-3.58.544-.842 1.534-1.077 2.435-1.343 2.419-.72 4.812-1.103 6.839-2.724a50.075 50.075 0 0 0 3.838-3.369c1.685-1.66 4.454-4.493 2.368-6.864-1.037-1.175-2.709-1.604-4.188-1.878a14.293 14.293 0 0 0-6.118.072c-1.795.459-3.518 1.448-4.293 3.208-.67 1.529-.527 3.39-.611 5.02-.135 2.665-.548 9.992-5.035 8.06-.978-.421-1.863-1.04-2.794-1.55a10.05 10.05 0 0 0-3.13-1.023 17.831 17.831 0 0 1-4.323-1.162 26.893 26.893 0 0 1-2.949-1.71c-1.307-.817-2.748-1.723-2.528-3.516.139-1.222 1.209-2.068 2.25-2.56 2.747-1.302 5.548-.611 8.224.48 1.723.703 4.534 2.105 6.404 1.115.603-.324.62-.842.898-1.47a19.82 19.82 0 0 1 1.264-2.4c.783-1.31 1.685-2.547 2.553-3.79a44.486 44.486 0 0 0 3.935-6.977c.771-1.647 1.951-3.47 1.804-5.36-.316-3.706-5.781-4.86-8.676-5.197-2.14-.244-4.613-.21-6.442 1.103-1.829 1.314-1.475 3.411-.876 5.268a474.524 474.524 0 0 0 2.81 8.709c.935 2.775 2.212 5.423 3.274 8.152 2.288 5.895 4.533 12.38 4.445 18.76-.08 5.77-1.816 11.34-2.726 16.996-1.062 6.573-1.631 13.214-2.722 19.791-1.091 6.578-2.697 13.168-4.024 19.75-2.574 12.726-4.656 25.603-4.816 38.611-.038 3.246.152 6.489-.147 9.731a60.184 60.184 0 0 1-1.757 9.622c-1.643 6.351-3.851 12.583-6.046 18.76-2.322 6.532-4.778 13.017-6.999 19.586-2.22 6.569-4.137 13.163-6.109 19.77-3.897 13.054-7.415 26.214-9.27 39.748-.888 6.472-1.55 12.97-2.33 19.455-.029.244.59.762.603.661v-.013Z"/><path d="M88.48 280.558c-1.613-3.184-3.105-6.435-4.883-9.53a39.446 39.446 0 0 0-6.51-8.422c-5.435-5.39-11.51-10.072-17.645-14.633-3.013-2.24-6.017-4.501-9.05-6.737-2.752-2.013-5.612-3.967-8.726-5.386a17.98 17.98 0 0 0-4.588-1.445 40.035 40.035 0 0 0-5.166-.383c-3.37-.093-6.695-.206-10.036.198a25.743 25.743 0 0 0-9.413 2.859 12.533 12.533 0 0 0-5.153 5.761 7.654 7.654 0 0 0-.703 3.819 8.304 8.304 0 0 0 1.264 3.369 24.364 24.364 0 0 0 5.945 6.401 30.498 30.498 0 0 0 8.094 4.346c3.244 1.263 6.383 2.791 9.9 2.985 1.72.093 3.443 0 5.167.093 1.77.103 3.53.335 5.266.695 1.686.333 3.35.774 4.98 1.318 1.188.395 2.208 1.09 3.371 1.579.843.362 1.9.665 2.764.172.48-.269.78-.568.636-1.115a18.12 18.12 0 0 0-.88-2.502c-1.264-2.948-3.181-5.474-5.031-8.06a41.092 41.092 0 0 1-5.225-9.42 32.134 32.134 0 0 1-1.495-5.15c-.123-.619-.506-1.613-.026-2.105.257-.28.58-.49.94-.611 1.563-.471 3.194 1.154 4.163 2.148a35.623 35.623 0 0 1 3.956 5.053c.999 1.482 1.947 2.99 2.992 4.438a37.491 37.491 0 0 0 3.37 4.123 44.604 44.604 0 0 1 3.493 3.929c1.985 2.619 3.485 5.693 5.945 7.921 2.25 2.034 5.022 2.947 7.698 4.211 1.892.905 4.104 2.105 6.278 1.751.767-.126 2.233-.715 2.06-1.659a7.38 7.38 0 0 0-1.63-3.318c-1.707-2.051-4.189-3.268-6.46-4.581a14.96 14.96 0 0 1-3.636-2.746c-1.234-1.339-2.241-2.864-3.404-4.253-2.397-2.864-5.33-5.281-8.225-7.618-2.818-2.274-5.84-4.35-8.38-6.948-2.321-2.375-3.986-5.255-5.38-8.249a47.803 47.803 0 0 1-3.333-9.639c-.645-2.851-1.146-5.95-.27-8.806a12.985 12.985 0 0 1 4.955-6.737c2.62-1.824 5.515-2.085 8.63-1.857a23.836 23.836 0 0 1 10.166 2.948c2.204 1.263 3.952 3.103 4.635 5.6.606 2.19.37 4.531-.245 6.691a21.89 21.89 0 0 1-3.033 6.317c-1.504 2.194-3.371 3.967-5.372 5.71-4.976 4.35-10.475 8.532-16.795 10.683-2.233.758-5.005 1.584-7.163.198-1.786-1.145-2.144-3.436-2.106-5.394a24.423 24.423 0 0 1 1.264-6.536 44.151 44.151 0 0 1 2.528-5.895c.91-1.903 1.96-4.367.843-6.405-1.526-2.779-5.406-2.021-7.492-4.106-2.157-2.156-2.528-5.638-2.991-8.506a42.429 42.429 0 0 1-.232-10.207c.364-3.611.915-7.201 1.652-10.755.581-3.062 1.356-6.136 1.639-9.243.215-2.321.11-4.86-1.121-6.906-1.306-2.182-3.636-3.213-6.076-3.546-5.014-.682-9.952 1.52-13.857 4.506a33.095 33.095 0 0 0-9.658 11.786c-.99 2.03-1.938 4.325-1.622 6.628.295 2.182 1.572 4.06 3.13 5.559a24.468 24.468 0 0 0 5.866 3.996c2.04 1.092 4.2 1.94 6.438 2.527 2.737.69 5.56.973 8.38.842 2.473-.126 5.414-.573 7.348-2.27 2.474-2.168 1.39-5.769 1.917-8.615.72-3.921 2.423-7.58 3.021-11.547.287-1.878.422-3.883 1.336-5.584a6.114 6.114 0 0 1 3.674-2.998c2.71-.728 5.477.665 7.466 2.4a20.642 20.642 0 0 1 4.997 6.536c1.15 2.375 1.858 5.306.632 7.794-1.226 2.489-3.678 3.811-6.413 3.1-2.873-.75-5.418-2.948-7.584-4.894-2.46-2.244-4.748-5.053-5.507-8.358-.728-3.188-.227-6.599.274-9.783.24-1.507.78-2.947.544-4.488-.215-1.415-1.188-2.455-1.542-3.79-.455-1.735.063-3.651.421-5.353.295-1.33.527-2.669.725-4.017.328-2.215.876-5.179-.493-7.159-1.108-1.591-3.14-2.071-4.968-2.147-4.335-.177-8.54 1.331-12.673 2.421-.076.021-.177.084-.19.173-.316 2.105 1.993 3.529 3.556 4.383 2.562 1.407 5.389 2.329 8.161 3.222 1.155.37 2.318.72 3.464 1.107 1.146.388 2.241.969 3.408 1.339.986.312 2.107.375 2.73-.593.394-.728.629-1.53.692-2.354.188-1.24.48-2.461.876-3.651a19.258 19.258 0 0 1 3.834-6.595 7.531 7.531 0 0 1 3.61-2.105c2.891-.842 6.557-1.074 9.32.316 3.245 1.634 2.381 5.407.776 7.967-1.875 3.002-4.959 5.718-8.557 6.232-2.183.312-4.332-.189-6.45-.665-2.12-.476-4.66-.366-6.565-1.499-2.608-1.554-1.93-5.167-1.193-7.58.877-2.855 2.271-5.508 3.531-8.203.594-1.263 1.117-2.581 1.656-3.878.67-1.626 1.146-3.251.569-4.969-.422-1.192-1.226-2.805-2.646-2.948-.573-.063-1.597.282-1.841.842a2.38 2.38 0 0 0 .096 1.023c.068.422.144.868.224 1.302.421 2.172 1.335 6.636 4.369 6.409 1.412-.106 2.78-1.297 3.607-2.371a15.2 15.2 0 0 0 1.373-2.383c1.1-2.14 2.107-4.388 3.594-6.317.544-.699 1.218-1.495 2.107-1.785.889-.291 1.605.248 2.144.93.843 1.045-.476 2.106-1.47 2.291-1.264.236-2.595-.076-3.792-.446a9.743 9.743 0 0 1-3.097-1.449c-1.563-1.217-1.365-3.234-1.137-4.986.198-1.524.27-3.049.42-4.573.153-1.524.43-3.099 1.244-4.363.897-1.372 2.343-1.756 3.914-1.587l-.472-.303c.388.568.29 1.448.22 2.105a11.929 11.929 0 0 1-.763 3.024c-.455 1.179-1.74 3.95-3.422 2.947-.526-.307-.632.396-.193.653 2.258 1.327 3.838-1.621 4.483-3.343a11.66 11.66 0 0 0 .775-3.689 4.114 4.114 0 0 0-.16-1.398c-.215-.636-.56-.779-1.222-.809a4.246 4.246 0 0 0-3.767 1.651c-.843 1.183-1.171 2.695-1.352 4.122-.207 1.584-.228 3.18-.422 4.763-.219 1.651-.526 3.453.329 4.986 1.21 2.16 4.407 3.124 6.686 3.453 1.1.156 2.432.198 3.371-.476.41-.296.706-.722.843-1.208.21-.708.055-1.087-.383-1.651-3.603-4.662-7.205 2.998-8.57 5.68-1.075 2.106-2.196 4.902-4.698 5.664-1.631.501-2.465-1.196-2.95-2.467a18.619 18.619 0 0 1-.72-2.645 39.105 39.105 0 0 1-.253-1.411c-.089-.576-.194-.972.421-1.284 1.728-.905 2.663 2.489 2.587 3.659-.118 1.874-1.175 3.672-1.858 5.386-1.074 2.683-2.528 5.197-3.564 7.9-.953 2.497-1.968 5.681-.746 8.262.683 1.445 2.027 2.308 3.535 2.733a24.8 24.8 0 0 0 3.324.581c1.176.169 2.322.468 3.485.708 2.106.421 4.18.64 6.273.147a11.049 11.049 0 0 0 4.403-2.358c2.528-2.106 5.162-5.369 5.027-8.843-.122-3.036-2.848-4.586-5.553-5.053-3.034-.535-6.54-.207-9.295 1.229-1.685.876-2.831 2.476-3.821 4.043a20.044 20.044 0 0 0-2.697 6.872c-.236 1.196-.223 3.963-2.069 3.765-1.293-.135-2.528-.931-3.716-1.365-2.528-.905-5.149-1.608-7.677-2.552a31.018 31.018 0 0 1-4.213-1.873c-.956-.531-2.107-1.196-2.642-2.186a1.898 1.898 0 0 1-.215-.543 2.25 2.25 0 0 1-.03-.295c0-.232-.075-.097 0-.143a8.363 8.363 0 0 1 1.606-.455c1.513-.421 3.03-.842 4.567-1.187a27.138 27.138 0 0 1 5.191-.729c1.408-.029 3.021.051 4.214.863 1.365.923 1.474 2.645 1.436 4.148a36.714 36.714 0 0 1-.653 5.336c-.392 2.193-1.196 4.438-.956 6.699.136.939.463 1.841.96 2.649.577.963.84 2.082.75 3.2-.1 1.053-.446 2.081-.606 3.125a80.238 80.238 0 0 0-.422 3.099 21.466 21.466 0 0 0 .114 6.506c.843 4.245 4.032 7.698 7.264 10.363 2.6 2.144 6.033 4.835 9.653 4.14 3.463-.661 5.241-4.46 4.85-7.702-.422-3.605-2.613-6.973-5.057-9.576-2.258-2.417-5.389-4.678-8.873-4.346a6.457 6.457 0 0 0-4.668 2.881c-1.45 2.185-1.425 4.901-1.909 7.39-.51 2.628-1.42 5.154-2.153 7.727a20.794 20.794 0 0 0-.796 3.575c-.114 1.099-.068 2.207-.102 3.31-.033 1.103-.155 2.249-.737 3.209a5.217 5.217 0 0 1-2.444 1.954 14.935 14.935 0 0 1-5.477 1.141 26.461 26.461 0 0 1-11.035-1.806c-5.38-2.22-13.398-6.46-11.16-13.509a28.39 28.39 0 0 1 4.887-8.843 31.274 31.274 0 0 1 8.174-7.382c2.924-1.782 6.299-3.015 9.762-2.889 1.85.063 3.834.463 5.288 1.684 1.297 1.087 1.93 2.716 2.148 4.359a18.33 18.33 0 0 1-.21 5.343c-.367 2.258-.843 4.498-1.264 6.738-.902 4.67-1.728 9.378-1.9 14.136a39.46 39.46 0 0 0 .34 7.121c.24 2.012.664 3.998 1.265 5.934.598 1.747 1.571 3.368 3.13 4.425.836.5 1.747.862 2.697 1.074 1.083.295 2.364.539 3.172 1.381 1.189 1.264.767 3.146.245 4.586-.586 1.613-1.454 3.095-2.178 4.632a27.58 27.58 0 0 0-2.31 8.123c-.32 2.582-.197 5.647 1.943 7.462 2.65 2.253 6.358 1.166 9.27.084 3.918-1.457 7.428-3.642 10.781-6.123a86.593 86.593 0 0 0 5.962-4.855 31.921 31.921 0 0 0 3.822-3.832c3.569-4.451 6.581-11.34 3.712-16.873-1.757-3.369-5.478-5.26-8.983-6.317a27.852 27.852 0 0 0-7.028-1.191c-1.98-.081-3.935-.001-5.793.741a13.281 13.281 0 0 0-7.285 7.714c-1.353 3.731-.451 7.946.569 11.652a47.143 47.143 0 0 0 5.287 12.275c2.528 4.051 6.236 6.877 9.948 9.765 4.108 3.201 8.09 6.536 11.258 10.692 1.382 1.811 2.798 3.491 4.74 4.721 1.534.964 3.169 1.768 4.681 2.77 1.513 1.003 3.072 2.325 3.75 4.127.114.295.38.842.266 1.133-.114.291-.755.602-1.045.716a4.018 4.018 0 0 1-2.284.076c-1.555-.333-2.975-1.104-4.403-1.773-1.88-.88-3.838-1.525-5.57-2.708-2.073-1.415-3.442-3.369-4.82-5.424a48.193 48.193 0 0 0-3.88-5.284c-1.64-1.845-3.397-3.512-4.876-5.508a57.22 57.22 0 0 1-2.367-3.428 45.097 45.097 0 0 0-4.917-6.607c-1.315-1.39-3.578-3.584-5.701-2.653a2.801 2.801 0 0 0-1.171.96c-.22.345-.076.75 0 1.141.084.581.19 1.162.316 1.739a34.684 34.684 0 0 0 2.283 6.868 38.052 38.052 0 0 0 3.531 6.186c1.285 1.853 2.671 3.639 3.885 5.542a27.618 27.618 0 0 1 1.597 2.838c.27.565.514 1.137.729 1.727.126.354.585 1.204.455 1.579-.131.375-.78.505-1.07.518a2.948 2.948 0 0 1-1.163-.249 22.66 22.66 0 0 1-2.145-1.09c-1.841-.952-4.028-1.419-6.046-1.849a36.491 36.491 0 0 0-6.96-.867c-2.221-.042-4.475.101-6.662-.375a22.852 22.852 0 0 1-3.67-1.263c-1.293-.518-2.604-.998-3.901-1.508a28.334 28.334 0 0 1-5.827-2.914 28.389 28.389 0 0 1-4.732-4.051c-1.315-1.406-2.6-3.023-3.265-4.855-.666-1.832-.165-3.904.762-5.592a12.543 12.543 0 0 1 3.818-4.266c1.778-1.226 3.947-1.975 6.02-2.527 4.576-1.187 9.27-1.052 13.95-.918 2.407.068 4.855.148 7.164.906a29.882 29.882 0 0 1 6.572 3.318c4.214 2.678 8.12 5.819 12.114 8.784 4.247 3.15 8.469 6.317 12.492 9.761 3.792 3.213 7.656 6.603 10.462 10.73 2.646 3.899 4.559 8.232 6.682 12.422.211.421.995.379.72-.16l-.007.013Zm25.702-113.996a94.983 94.983 0 0 0 10.66-3.394 68.27 68.27 0 0 0 5.014-2.219c1.685-.842 3.328-1.815 5.001-2.708 6.885-3.693 14.157-6.594 21.155-10.056 6.051-2.994 12.219-6.316 17.085-11.062a40.334 40.334 0 0 0 3.371-3.761c.843-1.056 1.685-2.215 1.989-3.562.644-3.024-1.829-6.144-4.193-7.706-1.887-1.242-4.394-2.169-6.341-.556a12.402 12.402 0 0 0-2.106 2.594 24.446 24.446 0 0 0-2.457 4.114 7.458 7.458 0 0 0-.577 4.822c.392 1.474 1.61 2.623 1.584 4.211-.021 1.204-.522 2.581.447 3.571.421.446 1.437.303 2.001.206a13.854 13.854 0 0 0 2.107-.665c3.442-1.205 7.163-1.327 10.778-1.39 3.821-.072 7.702.093 11.329 1.428 2.457.905 5.056 2.526 6.004 5.086a5.194 5.194 0 0 1-.025 3.883c-.506 1.086-1.563 1.769-2.633 2.211-2.313.956-4.85 1.09-7.285 1.537-3.447.631-6.999 1.187-10.496.657-3.627-.548-6.665-2.346-9.269-4.877a16.253 16.253 0 0 0-3.88-2.968c-1.21-.624-2.609-1.31-3.999-1.314-1.525 0-2.595 1.132-3.99 1.537l.628.252c.164-1.844 1.786-3.208 1.887-5.053.072-1.297-.872-2.425-1.761-3.268-.889-.842-2.233-1.772-3.585-1.785a3.154 3.154 0 0 0-2.929 2.232 5.31 5.31 0 0 0 .687 4.211c.843 1.36 2.452 2.105 3.952 2.48 3.518.927 7.112 0 10.319-1.52 6.463-3.083 11.169-8.666 16.685-13.054 1.398-1.112 3.13-1.537 4.681-2.379 1.154-.628 2.363-1.853 1.946-3.281a7.7 7.7 0 0 0-1.003-1.865 21.759 21.759 0 0 1-1.331-2.388 18.059 18.059 0 0 1-1.597-5.272 13.74 13.74 0 0 1 2.895-10.637c.981-1.221 2.191-2.484 3.703-3.015 1.686-.594 3.35.215 4.559 1.394 2.701 2.627 2.92 7.019 1.521 10.342-.737 1.756-2.043 3.209-3.901 3.744-1.315.379-2.836.568-3.813 1.621a1.078 1.078 0 0 0-.445 1.327c.063.158.162.299.289.412.282.517.737.919 1.285 1.137 1.192.446 2.557 0 3.661-.501 1.176-.531 2.246-1.264 3.4-1.828.974-.488 1.985-.914 2.988-1.339 1.369-.581 2.755-1.124 4.175-1.575a14.128 14.128 0 0 1 4.032-.842 2.718 2.718 0 0 1 2.768 1.849 4.29 4.29 0 0 1-.842 3.827c-1.113 1.386-2.899 1.782-4.593 1.613a16.863 16.863 0 0 1-2.528-.497 21.204 21.204 0 0 0-2.616-.421c-1.576-.198-3.16-.37-3.969-1.907-.708-1.344-.797-3.024-.653-4.506a7.728 7.728 0 0 1 1.483-4.135c1.264-1.626 3.096-2.754 4.765-3.917 1.369-.951 3.046-2.012 3.906-3.482a3.415 3.415 0 0 0 .421-1.849c0-.711 0-1.684-.421-2.278-.181-.265-.422-.455-.422-.796.007-.395.135-.778.367-1.099.421-.695.948-1.301 1.395-1.966a.214.214 0 0 0 .034-.156.213.213 0 0 0-.085-.135c-1.289-.842-3.042-.787-3.564-2.484-.422-1.356.231-2.86 1.082-3.908a4.427 4.427 0 0 1 6.78-.181 5.226 5.226 0 0 1 1.082 4.274l.177-.21a4.155 4.155 0 0 1-1.748.66c-.143 0-.464.169-.421.371.842 2.674 4.744 1.284 6.627 2.388a2.247 2.247 0 0 1 1.098 1.539 2.24 2.24 0 0 1-.474 1.83c-.889 1.031-2.351 1.587-3.636 1.928-1.631.421-4.096.649-4.993-1.154-.797-1.6-.16-3.747.366-5.33a35.48 35.48 0 0 1 2.659-5.896c.666-1.226 1.449-2.384 2.01-3.664.792-1.81 1.525-3.65 2.494-5.377.441-.846.989-1.632 1.631-2.337.421-.421.969-.93 1.596-.792.843.185 1.585 1.263 1.812 2.009.422 1.373-.291 2.893-.99 4.042a10.178 10.178 0 0 1-2.667 3.053c-1.315.94-2.899 1.453-4.104 2.552a4.638 4.638 0 0 0-1.264 1.895c-.139.387.78.35.906 0 .67-1.844 2.528-2.573 4.125-3.466a10.304 10.304 0 0 0 3.223-2.947c.877-1.192 1.685-2.645 1.795-4.152a3.697 3.697 0 0 0-1.458-3.074c-1.542-1.23-3.227-.055-4.243 1.233-1.373 1.74-2.258 3.866-3.126 5.896-.308.724-.59 1.47-.952 2.169-.325.623-.721 1.212-1.066 1.823a42.935 42.935 0 0 0-2.949 6.051c-.687 1.81-1.467 4.093-.885 6.034.602 2.026 2.743 2.443 4.613 2.279a11.197 11.197 0 0 0 4.016-1.184c1.087-.551 2.372-1.461 2.528-2.775.156-1.314-.902-2.581-2.145-2.948-1.395-.42-2.89-.223-4.289-.593a1.747 1.747 0 0 1-1.348-1.17l-.422.37a5.137 5.137 0 0 0 1.517-.421c.485-.228.843-.363.902-.91a5.808 5.808 0 0 0-.266-2.56 5.22 5.22 0 0 0-3.16-3.2c-3.29-1.163-7.162 1.162-7.546 4.686a3.24 3.24 0 0 0 .864 2.674c.813.805 2.043.842 2.979 1.457l-.051-.29c-.653.964-2.414 2.573-1.685 3.87.147.265.421.454.501.749.115.446.178.904.19 1.364a3.242 3.242 0 0 1-.388 2.106 8.92 8.92 0 0 1-1.972 1.95c-.762.61-1.58 1.158-2.384 1.714-1.572 1.09-3.198 2.215-4.353 3.764a8.112 8.112 0 0 0-1.437 4.072 9.353 9.353 0 0 0 .451 4.333 3.762 3.762 0 0 0 2.798 2.413c.908.193 1.827.334 2.751.421.881.114 1.719.333 2.579.527 2.949.678 6.594.421 8.094-2.645a4.306 4.306 0 0 0 .206-3.663 3.301 3.301 0 0 0-2.73-1.836 10.725 10.725 0 0 0-3.758.488 39.115 39.115 0 0 0-4.323 1.466 56.476 56.476 0 0 0-6.392 3.031c-1.058.586-2.528 1.474-3.792 1.158a2.081 2.081 0 0 1-1.34-1.305c-.312-.728.708-1.297 1.285-1.533 1.332-.539 2.832-.602 4.045-1.423a8.25 8.25 0 0 0 3.16-4.632c.94-3.272.468-7.096-2.027-9.58-1.137-1.133-2.688-1.933-4.327-1.819a6.647 6.647 0 0 0-3.863 1.836 14.313 14.313 0 0 0-4.778 9.293c-.32 3.58.712 7.159 2.469 10.25.67 1.183 2.216 2.729 1.356 4.16-.859 1.432-2.903 1.895-4.365 2.586-1.525.716-2.78 1.891-4.04 2.986-1.348 1.179-2.667 2.391-3.999 3.592-2.679 2.412-5.431 4.792-8.57 6.594-3.139 1.802-6.859 3.175-10.533 2.438-1.711-.341-3.489-1.112-4.323-2.733-.666-1.293-.952-3.268.089-4.455 1.112-1.263 2.65-.446 3.737.392 1.087.838 2.343 2.105 2.203 3.549-.172 1.773-1.714 3.096-1.879 4.894-.029.332.422.311.628.252 1.319-.383 2.44-1.625 3.889-1.415 1.289.186 2.558.843 3.683 1.47 1.407.779 2.528 1.937 3.657 3.036a16.914 16.914 0 0 0 12.539 4.822c2.97-.021 5.848-.636 8.776-1.074 3.838-.577 10.024-1.175 9.952-6.317-.03-2.32-1.542-4.274-3.371-5.588-2.351-1.684-5.3-2.526-8.136-2.914-3.682-.522-7.516-.421-11.216-.155-1.724.114-3.437.37-5.119.766-.812.198-1.612.441-2.397.729a4.903 4.903 0 0 1-2.575.421l.241.134c-1.071-1.17-.3-2.589-.472-3.975a6.306 6.306 0 0 0-.873-2.211 6.091 6.091 0 0 1-.842-2.379c-.194-1.836.522-3.613 1.42-5.171a36.111 36.111 0 0 1 2.599-3.866c.59-.774 1.34-1.65 2.381-1.743 1.458-.122 3.059.842 4.154 1.684a9.293 9.293 0 0 1 3.287 4.54c.207.667.267 1.371.174 2.064a4.808 4.808 0 0 1-.714 1.945 24.816 24.816 0 0 1-3.341 4.173 37.802 37.802 0 0 1-3.792 3.52 59.267 59.267 0 0 1-8.747 5.672c-7.125 3.955-14.666 7.024-21.989 10.574-1.875.91-3.733 1.853-5.562 2.855-1.744.96-3.463 1.942-5.267 2.788a77.585 77.585 0 0 1-11.194 4.102c-.958.28-1.919.544-2.882.791-.54.139-.451.72.105.577l.021.017Zm-16.938 76.952c5.17-2.22 10.243-4.755 15.695-6.228 5.001-1.352 10.167-1.908 15.324-2.199 2.671-.147 5.347-.202 8.005-.421a77.815 77.815 0 0 0 8.204-1.103c2.106-.4 4.184-.914 6.278-1.352a37.8 37.8 0 0 0 5.987-1.613c1.643-.64 3.248-1.574 3.653-3.431.455-2.06-.447-4.211-.632-6.254a12.334 12.334 0 0 1 3.552-9.866c4.993-4.822 13.335-4.451 18.665-.421a14.363 14.363 0 0 1 3.792 4.211c.821 1.427 1.542 3.251 1.083 4.914-.544 1.954-2.672 2.421-4.454 2.417-2.018 0-3.986-.581-5.132-2.35a8.198 8.198 0 0 1-1.07-2.792l-.472.19c.79.075 1.584.098 2.377.067.699 0 1.609-.038 2.106.539l.101-.223c-1.264.312-2.372-.206-3.493-.733a9.377 9.377 0 0 0-2.949-.993c-1.833-.194-3.194.774-4.605 1.794a5.788 5.788 0 0 1-2.233 1.153c-.362.068-.721.114-.965-.206-.552-.72-.118-2.009.118-2.762.425-1.249.94-2.465 1.542-3.639.531-1.099.986-2.244 1.53-3.331 1.049-2.105 2.528-3.895 3.914-5.773a25.32 25.32 0 0 0 1.908-2.948c.481-.901.843-1.848 1.218-2.787.358-.868.763-1.786.754-2.746a2.948 2.948 0 0 0-1.327-2.396c-1.942-1.288-4.42-.122-6.539-.257-.122 0-.312 0-.358.148-1.087 2.863 0 5.979 1.129 8.657.569 1.339 1.087 2.83 1.984 3.992a2.753 2.753 0 0 0 2.436 1.095c1.335-.067 2.667-.627 3.931-1.023a39.969 39.969 0 0 0 4.074-1.537 37.206 37.206 0 0 0 4.256-2.139c1.125-.666 2.448-1.419 3.151-2.556.704-1.137.695-2.489.687-3.79-.008-1.301.05-2.615 1.041-3.58l-.464.089c.582.097 1.058.766 1.344 1.221.424.702.75 1.459.969 2.249.422 1.398.738 3.078.384 4.527l.48-.139c-2.157-.202-3.27-2.422-5.22-3.142-.173-.063-.615-.147-.712.084-.784 1.904.042 3.875 1.306 5.353a11.077 11.077 0 0 0 5.325 3.394 7.473 7.473 0 0 0 6.586-1.356 4.884 4.884 0 0 0 1.984-3.457 6.498 6.498 0 0 0-.366-2.321 5.163 5.163 0 0 0-.813-1.684c-1.568-1.975-4.454-.421-6.384-.021l.771.236a12.797 12.797 0 0 1 3.085-6.456 14.518 14.518 0 0 1 5.898-4.287l-.649-.075c.742.358 1.479.922 1.547 1.806a2.768 2.768 0 0 1-.843 2.021c-1.137 1.23-3.164 2.14-4.82 1.516-.143-.054-.51-.139-.636 0-.127.139-.03.224.13.282a5.705 5.705 0 0 0 4.58-.366c1.125-.581 2.389-1.642 2.528-2.994a2.06 2.06 0 0 0-.644-1.596 3.663 3.663 0 0 0-.952-.707 1.34 1.34 0 0 0-1.323-.038 14.972 14.972 0 0 0-5.533 4.051c-1.685 1.899-2.97 4.236-3.316 6.763-.037.278.624.261.772.231.969-.189 1.896-.526 2.852-.758.742-.181 1.395-.248 1.951.354.357.43.622.929.779 1.465.273.711.426 1.463.451 2.224a4.483 4.483 0 0 1-1.491 3.242c-1.522 1.432-3.793 2.203-5.836 1.63a10.193 10.193 0 0 1-4.635-2.948c-1.327-1.453-2.199-3.44-1.398-5.369l-.713.08c1.066.396 1.821 1.264 2.68 1.958a5.482 5.482 0 0 0 2.996 1.293c.126 0 .442.038.484-.139.316-1.284.072-2.737-.236-4.005-.32-1.334-.842-2.855-1.887-3.789a2.478 2.478 0 0 0-1.568-.695c-.61 0-1.019.96-1.183 1.457-.443 1.356-.123 2.834-.295 4.211a4.283 4.283 0 0 1-.843 2.105 7.849 7.849 0 0 1-2.044 1.659 34.77 34.77 0 0 1-5.224 2.704 52.366 52.366 0 0 1-5.414 1.912c-.653.202-1.45.53-2.149.45-.569-.067-.969-.602-1.264-1.044a19.907 19.907 0 0 1-1.399-2.864c-.421-.985-.843-1.975-1.184-2.994-.678-2.042-1.041-4.265-.257-6.316l-.362.143c1.073.009 2.145-.08 3.202-.265 1.003-.118 2.031-.173 2.789.598 1.428 1.448.459 3.402-.173 4.973a20.788 20.788 0 0 1-1.508 3.15c-.607.998-1.298 1.937-1.997 2.867-1.403 1.87-2.827 3.736-3.746 5.896-.918 2.16-2.165 4.24-2.797 6.523-.22.783-.51 1.97.147 2.64.843.842 2.469.488 3.404.029 1.665-.821 3.093-2.728 5.12-2.526 1.264.118 2.355.842 3.493 1.326a5.735 5.735 0 0 0 3.623.362c.126-.029.194-.117.101-.223-.564-.648-1.559-.766-2.364-.842-.96-.059-1.942.063-2.898-.071-.127 0-.523-.03-.476.189.421 1.967 1.369 3.79 3.24 4.729a9.782 9.782 0 0 0 6.433.594c1.635-.421 2.874-1.546 2.95-3.285.097-1.836-.809-3.672-1.833-5.141-4.159-5.951-12.598-8.422-19.352-5.791a12.123 12.123 0 0 0-7.049 6.894 13.007 13.007 0 0 0-.8 5.988c.227 2.105 1.213 4.43.48 6.514-.67 1.916-2.861 2.666-4.635 3.213-1.984.615-4.028 1.011-6.063 1.436-2.486.527-4.951 1.12-7.479 1.499-2.894.435-5.81.716-8.734.843-5.38.235-10.761.496-16.061 1.52a52.417 52.417 0 0 0-7.757 2.105c-2.772.994-5.477 2.194-8.153 3.369-1.314.581-2.629 1.166-3.952 1.735-.202.084.042.244.13.282a.844.844 0 0 0 .637 0l-.013-.008Z"/></g><defs><clipPath id="a"><path fill="#fff" d="M0 0h223v281H0z"/></clipPath></defs></svg>