<svg width="441" height="420" fill="none" xmlns="http://www.w3.org/2000/svg"><path d="M198.548 274.637c-2.8.184-5.54.893-8.076 2.092a29.04 29.04 0 0 1-7.799 2.202c-5.235.799-10.451.878-15.608-.523-5.635-1.534-10.739-4.467-15.756-7.378-2.611-1.507-5.202-3.06-7.817-4.57l-1.678-.969-.9-.52c-.085.541.012.718.259.597.138.031.476-.087.533-.21.138-.24-.321-.896-.448-1.082-.551-.816-2.544-1.178-3.416-1.526-1.383-.557-3.517-1.696-4.99-.806-.449.34-.879.706-1.286 1.097-.521.409-1.176.67-1.456 1.29a3.9 3.9 0 0 0-.137 1.469 2.339 2.339 0 0 1-1.154 1.998 17.88 17.88 0 0 1-8.288 3.738c-1.893.278-3.825.377-5.724.516-2.342.168-4.613-.29-6.883.444a18.587 18.587 0 0 0-9.708 7.685c-2.112 3.277-1.966 6.678-1.546 10.429.205 1.823.327 3.641.397 5.464.119 1.387.162 2.78.127 4.172-.06.988-.278 1.97-.291 2.964-.072 2.253 1.116 4.096 2.844 5.47a14.8 14.8 0 0 0 8.008 3.353c2.017.198 2.574.733 2.581 2.91a8.927 8.927 0 0 1-.21 2.592c-.1.319-.458.694-.317.868l.453 1.086c.035-.946 4.488 1.17 4.815 1.317 2.768 1.356 5.389 2.969 8.342 3.857a8.72 8.72 0 0 0 6.437-.446c1.024-.445 1.988-.983 3.025-1.45a15.07 15.07 0 0 1 3.877-.958c2.84-.491 4.603-2.35 6.725-4.094a17.37 17.37 0 0 1 6.607-3.558c2.951-.781 5.931-1.107 8.856-2.053 2.926-.946 5.575-1.966 8.434-2.773 6.07-1.717 11.598-5.436 16.994-8.606 2.733-1.597 5.543-3.314 7.783-5.571a29.947 29.947 0 0 0 4.868-6.942c1.198-2.285.612-4.825 1.014-7.306a13.945 13.945 0 0 1 1.326-4.498c.83-1.523 2.337-2.031 3.283-3.374.805-1.148 1.212-2.333 2.321-3.27 1.109-.936 2.435-1.535 3.545-2.449 2.268-1.873 3.621-4.636 5.045-7.138 3.338-5.843 6.514-11.787 10.341-17.334 3.729-5.412 6.67-11.257 10.535-16.597 3.864-5.34 7.958-10.697 11.286-16.511 1.652-2.86 3.111-5.868 5.06-8.542a46.073 46.073 0 0 0 4.775-7.606c10.912-23.255 18.298-48.006 23.909-73.028 5.689-25.355 9.587-51.053 13.475-76.744l1.403-9.247c.059-.371-.65-1.15-.639-1.193-5.395 35.24-10.332 70.624-19.555 105.089-4.606 17.229-10.3 34.227-17.657 50.499-.94 2.071-1.821 4.226-2.954 6.2-1.133 1.974-2.619 3.651-3.888 5.504-2.549 3.714-4.435 7.867-6.836 11.68-4.922 7.812-10.96 14.739-15.491 22.784-2.172 3.86-4.838 7.371-7.113 11.164-2.443 4.059-4.74 8.209-7.081 12.327a47.706 47.706 0 0 1-3.238 5.311c-1.325 1.742-2.932 2.718-4.687 3.949a8.499 8.499 0 0 0-1.923 1.731c-.557.73-.79 1.675-1.372 2.376-.582.701-1.469 1.056-2.111 1.701a7.31 7.31 0 0 0-1.564 2.598 19.156 19.156 0 0 0-1.149 5.68c-.04.907.159 1.817.068 2.724a7.587 7.587 0 0 1-1.258 3.152c-2.151 3.552-4.497 6.559-7.916 8.925a130.412 130.412 0 0 1-11.359 6.781 81.052 81.052 0 0 1-5.664 2.958 43.805 43.805 0 0 1-6.129 2.066c-4.036 1.221-7.791 2.903-11.97 3.608-3.928.652-7.106 1.85-10.172 4.405-1.372 1.147-2.639 2.504-4.294 3.267-1.655.764-3.699.649-5.474 1.35-3.213 1.271-5.775 3.272-9.405 2.326-4.054-1.061-7.445-3.651-11.323-5.116-.714-.263-3.394-1.022-2.23.651 1.012 1.458 1.073-2.484 1.072-2.975-.013-1.527-.248-3.531-1.475-4.63-1.326-1.185-3.783-.707-5.388-1.236a16.4 16.4 0 0 1-3.664-1.945 11.872 11.872 0 0 1-2.039-1.574c-1.065-1.07-.966-2.214-.8-3.609.445-3.785.061-7.721-.362-11.503a25.74 25.74 0 0 1-.238-5.493 11.749 11.749 0 0 1 2.438-5.687 18.083 18.083 0 0 1 9.53-6.8c1.889-.529 3.795-.139 5.725-.246 1.93-.108 4.118-.244 6.141-.525a17.22 17.22 0 0 0 7.699-3.197c1.111-.78 1.927-1.246 2.019-2.649.038-.582-.093-1.155.261-1.682.414-.606 1.299-1.019 1.879-1.507 1.296-1.113 2.148-1.026 3.836-.492 1.103.353 2.159.849 3.236 1.272.328.132 1.499.368 1.691.65l-.453-1.086c-.092.16-.551.058-.682.26-.131.201.161.803.28.978.267.438.65.792 1.107 1.023 1.468.89 2.983 1.722 4.475 2.583 5.78 3.387 11.523 7.108 17.817 9.492a35.47 35.47 0 0 0 16.957 1.977 34.087 34.087 0 0 0 8.975-2.014 36.688 36.688 0 0 1 4.386-1.801 24.677 24.677 0 0 1 4.792-.784s-.278-1.29-.601-1.271l-.025.043Z" fill="#F1E0CE"/><path d="M203.319 274.529a30.164 30.164 0 0 0-1.11 6.967c-.039 2.406.54 4.786 1.075 7.119.296 1.272.591 2.543.806 3.832.109 1.107.302 2.204.578 3.281.326.984.807 1.887 1.208 2.829a16.456 16.456 0 0 1 1.138 3.81c.173 1.253.207 2.522.104 3.782a34.043 34.043 0 0 0-.005 3.698 24.69 24.69 0 0 1-.756 7.043 87.415 87.415 0 0 0-2.401 13.607 42.934 42.934 0 0 0 .912 13.589 24.45 24.45 0 0 0 2.407 6.362 37.712 37.712 0 0 0 4.049 5.633c3.313 3.944 6.623 8.029 10.626 11.306a88.78 88.78 0 0 0 13.374 8.822 24.831 24.831 0 0 0 3.423 1.6 9.74 9.74 0 0 0 3.373.79c1.579-.041 2.179-1.818 2.989-2.877a2.794 2.794 0 0 1 1.885-1.199 7.253 7.253 0 0 0 2.731-.781c.821-.45 1.577-1.008 2.408-1.451a8.477 8.477 0 0 1 2.849-.827 12.072 12.072 0 0 0 4.961-1.788 14.419 14.419 0 0 0 3.48-3.567c1.17-1.597 2.518-3.34 2.993-5.296.56-2.298.207-4.775.298-7.109.045-1.242.158-2.481.338-3.711a9.077 9.077 0 0 1 .998-3.401c.717-1.242 2.121-2.235 2.181-3.777.08-1.715-1.087-3.469-2.106-4.768a29.976 29.976 0 0 0-4.217-4.075c-.349-.294-.704-.591-1.046-.895l-.432-.384a3.145 3.145 0 0 0-.341-.332c-.141-.174-.143-.147-.031.053.112.2.117.252.096.055.177-.35.255-.741.228-1.132-.394-1.926-2.794-3.034-4.385-3.675-1.183-.485-2.406-.864-3.583-1.359a33.88 33.88 0 0 1-3.626-1.901c-2.456-1.418-4.835-2.969-7.33-4.318-2.165-1.172-4.491-1.989-6.679-3.096a16.427 16.427 0 0 1-3.25-2.061 22.807 22.807 0 0 1-2.73-2.997 75.042 75.042 0 0 1-5.048-6.622c-.71-1.12-1.409-2.234-2.114-3.351a33.425 33.425 0 0 1-2.076-3.33c-.998-2.06-1.865-4.152-3.377-5.913a25.232 25.232 0 0 0-5.468-4.577 41.023 41.023 0 0 1-6.25-4.923c-1.733-1.71-2.385-4.296-2.597-6.648a5.667 5.667 0 0 1 .454-2.373c.347-1.08.539-2.203.57-3.337.006-.244-.421-1.116-.676-1.178-.96-.22-.852 1.007-.644 1.595.099.321.269.615.496.862.155.139.231.204.134-.072-.172-.489-.044-1.339.639-1.179l-.671-1.176a12.161 12.161 0 0 1-.57 3.336 5.62 5.62 0 0 0-.443 2.479c.183 2.008.74 3.965 1.64 5.77a12.407 12.407 0 0 0 1.666 2.503 25.246 25.246 0 0 0 2.652 2.369 28.52 28.52 0 0 0 2.96 2.341c1.095.725 2.204 1.4 3.241 2.198 2.085 1.594 3.869 3.313 4.998 5.726.48.988.92 2.023 1.463 2.976.614 1.065 1.327 2.095 1.998 3.135 1.355 2.118 2.662 4.272 4.189 6.276a114.459 114.459 0 0 0 4.994 6.115c1.552 1.777 3.63 2.926 5.749 3.894 2.298 1.05 4.598 2.001 6.793 3.255 2.376 1.371 4.682 2.852 7.079 4.186a27.81 27.81 0 0 0 3.612 1.716c1.17.434 2.403.833 3.549 1.396.54.255 1.059.554 1.55.895l.363.28c.155.09.387.487.205.04-.183-.446-.084-.112-.134.072-.131.486-.28.719-.08 1.233.645 1.615 2.22 2.652 3.518 3.749a55.28 55.28 0 0 1 2.276 2.025 8.65 8.65 0 0 1 1.872 2.331 3.184 3.184 0 0 1 .059 2.726 9.886 9.886 0 0 1-1.258 1.724c-1.343 1.711-1.625 3.75-1.84 5.856-.243 2.402-.097 4.795-.183 7.195a8.93 8.93 0 0 1-.67 3.35 18.552 18.552 0 0 1-1.696 2.778 20.562 20.562 0 0 1-3.254 3.938 10.649 10.649 0 0 1-4.194 2.246c-.968.272-1.945.354-2.916.547a8.044 8.044 0 0 0-2.629 1.145c-.766.529-1.58.987-2.43 1.367-.83.331-1.757.215-2.561.56-1.419.601-1.787 2.321-2.85 3.327a2.212 2.212 0 0 1-2.016.526 15.864 15.864 0 0 1-3.882-1.162 67.949 67.949 0 0 1-6.639-3.719 58.822 58.822 0 0 1-12.841-9.857c-1.843-1.924-3.562-3.967-5.295-5.997a45.684 45.684 0 0 1-4.419-5.706c-2.413-3.964-3.109-9.033-3.255-13.591a60.603 60.603 0 0 1 1.271-13.507c.442-2.267 1.041-4.485 1.518-6.738.457-2.249.612-4.548.46-6.838-.138-2.43.328-4.825-.185-7.209a18.27 18.27 0 0 0-.983-3.217c-.415-1.028-.983-1.988-1.31-3.058a25.248 25.248 0 0 1-.613-3.528c-.209-1.187-.483-2.361-.752-3.532-.556-2.408-1.134-4.838-1.043-7.321a30.85 30.85 0 0 1 1.1-6.617c.056-.209-.258-.624-.361-.791-.053-.03-.332-.482-.361-.357l.036-.015Z" fill="#F1E0CE"/><path d="M201.404 290.001a170.63 170.63 0 0 0-1.156 6.493 39.08 39.08 0 0 1-1.189 6.033c-.614 1.875-1.495 3.647-2.189 5.49a29.146 29.146 0 0 1-2.591 5.607c-3.896 6.083-10.086 10.087-15.674 14.39a57.38 57.38 0 0 0-8.136 7.449c-2.525 2.86-4.578 6.022-6.715 9.17a17.853 17.853 0 0 0-2.666 5.564 25.646 25.646 0 0 0-.819 5.209 54.272 54.272 0 0 0 .636 9.97c.395 3.006 1.015 6.177 3.321 8.31a11.367 11.367 0 0 0 3.082 2.313c1.069.429 2.164.788 3.279 1.076 2.159.614 4.565 1.023 6.572 2.075a2.118 2.118 0 0 1 1.057 2.365c-.162 1.043-.119 1.891.674 2.683.614.646 1.402 1.101 2.049 1.666a13.08 13.08 0 0 0 2.538 1.657c1.41.708 2.729 1.647 4.273 2.048 1.253.326 2.55.172 3.806.457 1.148.287 2.274.654 3.37 1.101 2.09.809 4.338 1.922 6.625 1.935a3.778 3.778 0 0 0 2.486-.787c.879-.736 1.201-1.921 2.045-2.705 3.092-2.896 7.688.376 10.552 2.022 2.392 1.381 5.185.75 7.498-.5a18.369 18.369 0 0 0 6.997-7.198 14.28 14.28 0 0 0 1.921-5.481c.17-.859.223-1.736.157-2.609a2.09 2.09 0 0 0-.914-1.295c-.171-.049-.108.186.002.193.11.006.08-.053.114-.062a.827.827 0 0 0 .242-.137 7.66 7.66 0 0 0 .486-.288 13.219 13.219 0 0 0 2.293-1.83 14.88 14.88 0 0 0 3.847-7.119c1.075-4.422.639-9.128-.271-13.531-1.595-7.682-4.693-15.025-8.166-22.024-5.704-11.504-12.655-22.371-20.019-32.867a434.553 434.553 0 0 0-7.027-9.788c-.441-.603-1.686-.157-1.156.561 8.364 11.349 16.368 23.038 23.185 35.405 4.253 7.704 8.16 15.749 10.633 24.222 1.418 4.754 2.438 10.024 1.925 14.948a15.783 15.783 0 0 1-2.995 8.214 8.877 8.877 0 0 1-.987 1.143c-.343.347-.709.672-1.094.973-.171.136-.352.265-.537.4l-.247.17a.905.905 0 0 1-.141.097c-.337.203-.706.373-1.049.587-1.238.827.406 1.449.473 2.269a8.33 8.33 0 0 1-.106 1.537c-.033.4-.079.8-.144 1.195a12.34 12.34 0 0 1-.96 3.054 17.93 17.93 0 0 1-6.719 7.947 9.344 9.344 0 0 1-4.002 1.433 4.965 4.965 0 0 1-3.048-.872 26.403 26.403 0 0 0-5.311-2.612c-1.925-.614-4.092-.7-5.83.477a8.174 8.174 0 0 0-2.23 2.633 2.225 2.225 0 0 1-1.909 1.029c-2.16.052-4.328-1.114-6.311-1.875a25.417 25.417 0 0 0-3.407-1.087c-1.256-.284-2.563-.137-3.803-.462-1.481-.387-2.774-1.346-4.136-2.026a12.474 12.474 0 0 1-2.431-1.695c-.569-.477-1.452-.916-1.809-1.591-.356-.674.138-1.739-.01-2.541a3.541 3.541 0 0 0-1.819-2.336c-1.974-1.083-4.382-1.514-6.537-2.112a31.395 31.395 0 0 1-3.189-.996 9.979 9.979 0 0 1-2.99-2.203c-2.298-2.171-2.643-5.659-2.964-8.608-.366-3.364-.779-6.721-.402-10.105.192-1.799.592-3.57 1.193-5.277.724-2.018 2.105-3.721 3.27-5.492a60.74 60.74 0 0 1 7.021-8.987c4.933-5.1 11.131-8.688 16.367-13.414a32.703 32.703 0 0 0 6.587-7.903 40.579 40.579 0 0 0 2.296-5.415c.71-1.784 1.556-3.519 2.105-5.369a47.469 47.469 0 0 0 1.098-5.95c.335-2.03.685-4.065 1.096-6.08.15-.751-1.217-1.078-1.369-.335l.003-.006Z" fill="#F1E0CE"/><path d="M200.825 289.958c-1.23 2.131-2.354 4.324-3.672 6.446a37.943 37.943 0 0 1-4.688 5.931c-1.726 1.844-3.499 3.662-5.067 5.676-1.466 1.874-2.842 3.693-4.816 5.032-.916.615-1.875 1.169-2.769 1.818a16.257 16.257 0 0 0-2.45 2.4 5.447 5.447 0 0 1-2.671 1.697c-.955.193-1.921.33-2.893.41-2.05.315-3.903 1.298-6.016 1.243a18.365 18.365 0 0 1-3.07-.416c-1.035-.2-2.079-.348-3.094-.607a13.825 13.825 0 0 1-3.38-1.454 7.541 7.541 0 0 0-2.508-.738c-1.644-.239-4.119-.247-4.445-2.289-.116-.649-1.36-1.077-1.216-.219.304 1.823 1.576 2.856 3.295 3.323.879.223 1.783.319 2.681.461a7.334 7.334 0 0 1 2.433.879c2.019 1.166 4.207 1.498 6.465 1.929 2.09.403 4.162.641 6.232-.004a19.829 19.829 0 0 1 3.409-.873 17.192 17.192 0 0 0 3.023-.513c2.263-.696 3.33-2.864 5.163-4.193.994-.726 2.069-1.32 3.073-2.026a13.992 13.992 0 0 0 2.765-2.587c.796-.961 1.507-1.971 2.298-2.935a68.363 68.363 0 0 1 2.728-3.063c2.009-2.164 4.097-4.254 5.759-6.704 1.663-2.449 3.043-5.197 4.547-7.802.33-.57-.756-1.445-1.128-.8l.012-.022Zm-53.621-20.566c.684-1.985.834-4.15 1.688-6.072a9.836 9.836 0 0 1 2.835-3.57 5.541 5.541 0 0 1 4.165-1.395c1.934.282 3.829.791 5.644 1.519.907.31 1.782.603 2.679 1.006.892.45 1.839.782 2.817.988 1.891.317 3.814-.355 5.695-.022a3.803 3.803 0 0 1 1.833 1.058 13.893 13.893 0 0 0 2.64 1.738c1.799.981 3.692 1.847 5.232 3.24a7.395 7.395 0 0 1 1.995 2.352c.438.964.739 1.968 1.219 2.92a9.537 9.537 0 0 0 1.477 2.487c.719.734 1.583.566 2.474.881.588.212.581-1.191.082-1.373-.871-.311-1.733-.098-2.362-.916-.5-.757-.929-1.559-1.281-2.395-.45-.906-.665-1.911-1.149-2.794a7.957 7.957 0 0 0-1.691-1.992 14.178 14.178 0 0 0-2.319-1.815c-.927-.535-1.888-1.012-2.821-1.536a18.622 18.622 0 0 1-2.829-1.719 6.992 6.992 0 0 0-1.908-1.371 5.732 5.732 0 0 0-2.301-.185 30.584 30.584 0 0 1-3.057.153c-2.087-.076-3.99-1.295-5.91-1.992a29.909 29.909 0 0 0-5.682-1.611 5.873 5.873 0 0 0-4.323.906 11.19 11.19 0 0 0-3.514 3.846c-1.149 2.064-1.236 4.492-2.002 6.692a1.017 1.017 0 0 0 .136.995c.183.198.468.27.594-.069l-.056.046Zm56.25 11.657c2.424 1.4 4.808 3.238 7.648 3.62a31.69 31.69 0 0 0 3.684.153c1.298.039 2.618-.044 3.928-.013 1.626.037 2.531 1.128 3.842 1.956a30.247 30.247 0 0 0 4.135 2.004 80.938 80.938 0 0 1 7.799 4.282c1.289.744 2.583 1.492 3.814 2.337 1.231.846 2.39 1.863 3.561 2.838a36.255 36.255 0 0 0 7.577 4.899 6.374 6.374 0 0 1 2.557 1.967 12.871 12.871 0 0 1 1.516 3.823 26.914 26.914 0 0 0 1.345 3.66c.497 1.097.262 2.155-.151 3.251a5.395 5.395 0 0 1-2.096 2.832 5.574 5.574 0 0 1-3.312.531c-1.588-.114-3.15-.498-4.743-.494-1.097.006-1.545.351-2.206 1.177l.297-.049-.416-.14c-.591-.207-.735 1.187-.276 1.339l.411.138c.096.055.22.049.301-.054.218-.368.518-.681.876-.915a3.842 3.842 0 0 1 1.719-.087c1.416.107 2.825.41 4.251.487 2.206.116 4.02-.627 5.144-2.599 1.073-1.859 1.746-4.255.857-6.295a37.109 37.109 0 0 1-1.481-4.201 13.004 13.004 0 0 0-1.48-3.489 6.466 6.466 0 0 0-2.542-2.129 42.24 42.24 0 0 1-4.047-2.194c-2.689-1.751-4.943-4.047-7.615-5.817-2.556-1.724-5.333-3.25-8.036-4.768a44.351 44.351 0 0 0-4.367-2.13 17.453 17.453 0 0 1-4.052-2.247 6.182 6.182 0 0 0-1.906-1.164 6.843 6.843 0 0 0-2.412-.129c-1.533.074-3.091-.009-4.621-.054a10.244 10.244 0 0 1-4.439-.922c-1.647-.837-3.196-1.845-4.757-2.747-.49-.283-.718 1.084-.282 1.337l-.025.006Z" fill="#F1E0CE"/><path d="M199.128 304.967c-.243 1.515-.347 3.06-.597 4.564-.25 1.503-.577 2.919-.839 4.381a39.997 39.997 0 0 1-2.4 8.771 83.897 83.897 0 0 1-4.268 8.438c-1.538 2.664-2.969 5.389-4.454 8.083a45.568 45.568 0 0 1-2.476 4.068c-.838 1.192-1.765 2.319-2.558 3.545-1.595 2.467-3.013 5.058-5.312 6.962-2.167 1.796-4.853 2.795-7.117 4.415-1.089.791-2.056 1.803-3.288 2.398-1.232.596-2.604.734-3.907 1.083-1.142.306-2.171 1.055-3.36 1.171a7.387 7.387 0 0 1-3.011-.531c-2.266-.775-4.34-1.476-6.746-.926-1.92.447-3.888 1.371-5.789.358a4.337 4.337 0 0 0-1.13-.503 6.404 6.404 0 0 0-1.54-.051 7.138 7.138 0 0 1-1.417-.008 1.93 1.93 0 0 1-1.225-.793c-.389-.458-.824-.873-1.216-1.327a4.345 4.345 0 0 1-.552-.766 6.377 6.377 0 0 0-.352-.793c-.261-.371-.679-.349-1.004-.622-.444-.363-.543-1.372-.765-1.912a7.25 7.25 0 0 1-.657-1.863 2.312 2.312 0 0 0-.437-1.248c-.387-.436-.97-.78-1.38-1.165-.413-.371-.799-.77-1.157-1.194a4.57 4.57 0 0 1-1.042-1.887 1.91 1.91 0 0 1 .042-.97c.204-.92.47-1.91.053-2.811a3.687 3.687 0 0 0-1.11-1.252c-.759-.629-1.571-1.191-2.38-1.757a22.9 22.9 0 0 1-4.72-3.919 7.103 7.103 0 0 1-1.461-2.747 12.206 12.206 0 0 1-.144-3.847 10.67 10.67 0 0 1 1.96-5.425c.366-.499.9-.993 1.437-.434.174.178.482-1.057.202-1.347-1.17-1.208-2.354 1.383-2.724 2.171a14.94 14.94 0 0 0-1.401 6.585c-.003 2.342.313 4.379 1.821 6.258 1.359 1.693 3.209 2.918 4.976 4.151a30.1 30.1 0 0 1 2.476 1.863c.358.281.633.654.798 1.078-.049-.149-.034.059-.056.096-.045.201-.098.405-.153.622a6.494 6.494 0 0 0-.165 1.702c.058 1.596.964 2.893 2.067 3.985.447.456.981.885 1.495 1.31.515.425.475.899.604 1.549.18.583.416 1.147.704 1.685.241.579.29 1.417.707 1.9.283.334.808.324 1.077.657.184.234.271.675.433.96.166.259.353.504.557.734.388.458.824.873 1.212 1.332.271.387.665.672 1.117.808.991.253 2.041-.065 3.04.086a5.892 5.892 0 0 1 1.516.648c.453.207.941.33 1.439.362 2.103.134 4.044-1.088 6.157-1.069 2.49.017 4.605 1.558 7.046 1.71 1.227.076 2.077-.485 3.176-.901 1.3-.492 2.7-.615 4.015-1.049a11.323 11.323 0 0 0 3.524-2.227 26.105 26.105 0 0 1 3.747-2.382 29.436 29.436 0 0 0 3.675-2.268 16.035 16.035 0 0 0 3.018-3.123c.89-1.198 1.657-2.488 2.454-3.747.847-1.344 1.819-2.572 2.74-3.859 1.85-2.59 3.249-5.468 4.767-8.257 1.561-2.877 3.272-5.668 4.766-8.613a43.168 43.168 0 0 0 3.581-8.884c.361-1.461.621-2.945.886-4.425.265-1.481.618-2.989.853-4.48.236-1.49.383-3.124.621-4.692.02-.158.089-.794-.121-.872-.211-.079-.298.318-.324.474l-.004-.017Zm-52.08-36.042a17.86 17.86 0 0 1-3.799 4.327c-1.639 1.228-3.627 1.706-5.365 2.748a28.474 28.474 0 0 0-5.174 4.201 16.954 16.954 0 0 0-3.709 4.677 8.568 8.568 0 0 0-.537 5.742 27.332 27.332 0 0 0 1.064 3.2c.234.541.43 1.098.586 1.666.104.565.106 1.144.008 1.709a15.54 15.54 0 0 0-.238 2.96c.079.936.32 1.851.711 2.705.418.926.956 1.793 1.601 2.579.699.83 1.689 1.146 2.639 1.58 1.178.531 1.861 1.501 2.863 2.25 1.002.749 1.981.505 3.128.733a5.18 5.18 0 0 1 1.748.86 14.07 14.07 0 0 0 1.801.941c1.285.578 2.615 1.055 3.853 1.741.239.139.37-1.207.082-1.373-2-1.112-4.181-1.789-6.142-2.992a4.66 4.66 0 0 0-2.457-.666 3.729 3.729 0 0 1-2.639-1.26 7.858 7.858 0 0 0-2.534-1.762 5.29 5.29 0 0 1-2.558-1.881 9.617 9.617 0 0 1-1.362-2.562 6.16 6.16 0 0 1-.011-2.848c.148-.922.178-1.859.091-2.789a12.796 12.796 0 0 0-.884-2.861 15.201 15.201 0 0 1-1.019-3.316 5.58 5.58 0 0 1 .527-2.991c.797-1.799 2.162-3.205 3.545-4.566a31.121 31.121 0 0 1 4.748-3.992c1.813-1.184 3.954-1.695 5.719-2.942a17.375 17.375 0 0 0 4.021-4.504c.14-.268.177-.577.104-.87-.01-.056-.161-.669-.294-.476l-.117.032ZM290.773 58.431a227.757 227.757 0 0 0-10.758 21.093c-3.238 7.208-5.829 14.697-9.214 21.841-1.632 3.44-3.41 6.803-5.255 10.135-.948 1.704-1.95 3.377-2.885 5.082-.922 1.598-1.642 3.25-2.584 4.808a10.87 10.87 0 0 1-3.187 3.551 25.528 25.528 0 0 1-4.624 2.302c-3.194 1.288-6.509 2.294-9.783 3.337-3.422 1.093-6.857 2.171-10.164 3.593a47.256 47.256 0 0 0-9.294 5.579 24.685 24.685 0 0 1-4.433 2.868c-1.514.667-3.233.974-4.591 1.923-1.283.907-2.156 2.222-3.711 2.737-1.838.637-3.428.23-3.786-1.845a11.583 11.583 0 0 1 2.463-8.792c1.922-2.321 4.84-3.463 7.712-4.07 6.415-1.269 13.053-.057 19.438-1.521 4.316-.981 8.56-2.451 12.838-3.611 3.247-.874 6.603-1.692 9.064-4.135 2.273-2.239 4.567-10.149 8.819-6.664l-.407-.746c-.022 5.747-3.661 10.316-7.121 14.562a50.247 50.247 0 0 0-4.787 6.47 19.452 19.452 0 0 0-2.291 6.895c-.782 5.181-.596 10.31-2.909 15.14a41.176 41.176 0 0 1-4.702 7.392c-1.878 2.418-3.962 4.624-5.661 7.173-2.816 4.227-5.038 8.726-7.328 13.235a22.836 22.836 0 0 1-3.294 5.151 8.986 8.986 0 0 1-2.448 1.939c-.648.336-2.108 1.056-2.755.541-1.19-.979-.06-3.587.412-4.614a36.566 36.566 0 0 1 2.663-4.464c3.104-4.75 5.67-9.895 8.458-14.834 1.77-3.141 3.562-6.268 5.462-9.326 1.828-2.958 4.18-5.493 6.295-8.234 1.685-2.181 2.768-4.795 4.602-6.876 1.601-1.838 3.808-2.326 6.162-2.38l-.758-1.148c-2.997 7.134-4.552 15.129-11.029 20.062-2.984 2.276-6.375 3.955-9.62 5.811a49.66 49.66 0 0 1-10.01 4.605 79.382 79.382 0 0 1-9.827 2.43 10.434 10.434 0 0 1-3.829.198c-.509-.103-1-.223-1.128-.765-.182-.766.399-1.823.713-2.465 1.649-3.311 4.576-5.797 7.672-7.752 1.464-.924 3-1.727 4.41-2.718 1.41-.99 2.798-2.028 4.188-3.058 3.183-2.352 6.455-4.427 10.455-4.945 3.638-.47 7.321-.034 10.946-.506l-.651-1.221c-3.025 1.635-4.769 4.655-7.187 6.974-2.673 2.562-5.956 4.509-9.113 6.408a88.004 88.004 0 0 0-9.278 6.044c-3.063 2.415-6.203 4.764-9.179 7.286a30.453 30.453 0 0 0-7.109 8.795c-1.984 3.585-4.048 7.109-6.066 10.667a90.506 90.506 0 0 0-5.163 10.345c-1.528 3.741-2.481 7.68-4.112 11.391-1.383 3.158-3.154 6.141-4.677 9.232-1.067 2.168-2.601 5.736-5.366 6.022l.719.564c-1.313-3.102.137-6.733 1.309-9.65 1.621-4.036 3.145-8.128 4.861-12.109a102.602 102.602 0 0 1 6.434-12.558c2.477-4.046 5.667-7.503 9.006-10.838 1.658-1.643 3.277-3.315 4.981-4.938 1.588-1.519 3.283-2.721 5.523-2.948l-.795-.885c.422 8.348 1.191 16.797.052 25.117-1.152 8.455-5.442 15.958-7.764 24.078l.872.162c-.602-.852-.685-2.05-.76-3.052-.09-1.4-.098-2.803-.023-4.204.105-2.482.402-4.953.499-7.433.14-4.183.554-8.352 1.239-12.481.742-4.324 1.498-8.746 2.889-12.914.852-2.57 3.266-5.509 1.852-8.3-.116-.23-.498-.749-.829-.521-5.831 3.949-11.844 7.659-17.848 11.352-2.97 1.836-5.938 3.582-8.907 5.377a33.1 33.1 0 0 0-3.925 2.627c-1.145.938-2.053 1.969-3.605 2.124l.796.885c-.392-3.308 1.954-5.846 4.388-7.736 2.609-1.996 5.564-3.486 8.487-4.981 2.923-1.494 5.872-3.208 9.024-4.435 3.801-1.478 7.733-2.802 10.941-5.417.347-.283.011-.882-.268-1.086-5.827-4.216-13.448-1.251-19.844-.383-4.027.552-8.089.6-12.135.928-1.98.156-3.948.391-5.933.495-1.73.047-3.461.008-5.187-.118-1.373-.083-2.72-.1-4.082-.226-.882-.083-3.203-.124-3.682-1.004.005.273.011.547.025.817 5.947-4.223 13.311-5.192 20.423-5.503 7.876-.355 16.159-.381 22.439 5.141l-.269-1.085c-4.752 3.925-11.221 4.992-16.582 7.807-5.226 2.728-9.579 6.75-14.63 9.765a29.56 29.56 0 0 1-14.688 4.304c-5.619.137-11.236.616-16.867.661-6.704.036-13.545-1.144-18.594-5.87l.262.776c.639-1.918 3.965-2.143 5.608-2.331 2.201-.256 4.45-.215 6.633-.588 2.996-.515 5.697-1.811 8.817-1.359 3.467.503 6.696 1.998 10.225 2.196 3.529.198 7.224.577 10.762.318 2.009-.147 3.923-1.137 5.846-1.675.746-.209 1.976-.678 2.756-.405.78.273.911 1.165.886 1.847-.065 1.959-1.168 3.893-2.126 5.542-.959 1.648-2.092 3.253-3.18 4.855-1.511 2.21-2.743 4.603-4.238 6.836a55.512 55.512 0 0 1-6.449 7.996c-1.97 2.01-4.145 3.772-6.247 5.628-3.184 2.821-6.566 6.01-10.573 7.61-1.053.422-3.716 1.208-4.305-.354-.494-1.287 1.112-3.158 1.853-4.023 2.561-3.095 5.859-5.595 9.043-8.011 5.059-3.841 10.133-7.709 14.646-12.192a16.231 16.231 0 0 1 4.04-3.109l-.844-1.098c-4.749 6.812-13.186 10.18-20.94 12.195a69.379 69.379 0 0 1-11.669 2.113c-4.53.367-9.065-.156-13.597.005-4.941.18-9.909 1.169-14.789-.221l.649.723c-.475-1.787 2.729-3.042 3.919-3.541a47.828 47.828 0 0 1 8.678-2.483c6.073-1.267 12.245-1.34 18.357-2.392a18.864 18.864 0 0 1 7.488-.372c2.315.222 4.648.425 6.889-.355.557-.19.092-1.07-.288-1.211-2.536-.96-5.175-.608-7.817-.67a53.505 53.505 0 0 1-9.573-1.393c-6.158-1.304-12.394-2.227-18.506-3.624a53.795 53.795 0 0 1-18.677-8.113c-4.097-2.82-7.825-6.13-11.947-8.894-1.752-1.174-3.499-2.368-5.148-3.682a22.14 22.14 0 0 1-2.281-2.027c-.376-.395-.995-.959-1.026-1.545-.12.123-.25.247-.373.375 8.706 2.341 17.337 5.464 24.592 10.945 1.669 1.255 3.169 2.717 4.887 3.901a43.268 43.268 0 0 0 5.13 2.962c3.858 1.929 7.905 3.591 11.085 6.549l-.266-.771c-.651 4.155-6.112 3.623-9.21 3.454-5.299-.296-10.64-.148-15.945-.235a3357.22 3357.22 0 0 0-9.502-.152 80.645 80.645 0 0 1-8.313-.24c-3.993-.465-8.545-1.722-12.466-.343a21.408 21.408 0 0 0-4.697 2.673c-1.299.883-3.197 1.982-3.888 3.437a.897.897 0 0 0 .61 1.133c7.394 1.365 15.097 1.039 22.465-.354 3.696-.707 7.211-1.924 10.837-2.778a56.637 56.637 0 0 1 10.49-1.302c3.086-.129 6.902.433 9.608-1.4.434-.296-.128-1.181-.533-1.217-8.808-.823-16.808-4.448-24.724-8.158-3.825-1.79-7.664-3.58-11.634-5.02-3.408-1.257-6.925-2.3-10.588-2.391a14.514 14.514 0 0 0-5.66.873c-2.007.781-3.47 2.443-5.447 3.283-.55.238.243 1.128.533 1.217.732.222 1.51.239 2.251.05a7.497 7.497 0 0 1 2.939-.107c2.414.37 4.7 1.293 7.065 1.948 4.932 1.483 9.945 2.716 14.936 3.999 4.515 1.186 9.018 2.564 13.565 3.57 4.187.905 8.279.916 12.531 1.105 4.252.189 8.861.855 13.128-.077.625-.136-.009-1.376-.545-1.259-3.91.867-8.013.346-11.965.13-4.135-.22-8.21-.123-12.305-.917-4.413-.858-8.721-2.23-13.068-3.361-4.99-1.298-10.004-2.516-14.953-3.946-2.596-.745-5.151-1.745-7.797-2.292a8.966 8.966 0 0 0-3.261-.257c-1.011.177-1.797.468-2.828.15l.533 1.217c1.678-.728 2.956-2.093 4.576-2.919a12.307 12.307 0 0 1 5.146-1.163c3.93-.139 7.782 1.027 11.434 2.34 7.772 2.853 14.991 6.993 22.745 9.9a52.672 52.672 0 0 0 13.69 3.33l-.533-1.217c-2.387 1.612-5.77 1.221-8.508 1.289a57.355 57.355 0 0 0-10.19 1.077c-3.492.711-6.848 1.934-10.335 2.684a69.36 69.36 0 0 1-11.125 1.468 55.213 55.213 0 0 1-12.786-.762l.61 1.134c.53-1.115 1.803-1.893 2.735-2.597a40.794 40.794 0 0 1 3.779-2.436c2.948-1.686 6.132-1.517 9.414-1.113 1.779.217 3.547.513 5.33.684 2.02.193 4.022.12 6.027.141 5.12.051 10.237.157 15.359.23 4.223.066 8.433.032 12.664.209 2.474.107 5.785.314 7.696-1.58.65-.647 1.529-2.107.991-3.022-.42-.711-1.423-1.311-2.069-1.791a29.014 29.014 0 0 0-2.878-1.868c-4.06-2.343-8.579-3.915-12.365-6.719-2.277-1.691-4.311-3.605-6.697-5.181a57.021 57.021 0 0 0-6.927-3.885 92.257 92.257 0 0 0-15.67-5.532.324.324 0 0 0-.367.225.328.328 0 0 0-.01.155c.065 1.315 1.164 2.426 2.06 3.284a39.65 39.65 0 0 0 4.525 3.593c1.422 1.005 2.886 1.964 4.332 2.941 2.07 1.409 3.962 3.09 5.946 4.612 5.575 4.27 11.433 7.951 18.167 10.091 6.341 2.02 12.954 2.869 19.472 4.14 3.711.721 7.375 1.658 11.127 2.098 1.583.186 3.178.264 4.773.234 1.914-.031 3.875-.106 5.699.584l-.288-1.21c-4.087 1.419-8.462-.34-12.658.42-4.196.759-8.474 1.144-12.787 1.517a58.127 58.127 0 0 0-15.428 3.444c-1.65.632-4.289 1.587-4.902 3.484a1.657 1.657 0 0 0 .634 2.064c1.098.401 2.254.618 3.423.641 1.135.1 2.275.135 3.414.103 2.394-.038 4.787-.333 7.179-.465 2.533-.143 5.066-.051 7.597.018a62.762 62.762 0 0 0 13.923-1.11c9.428-1.837 20.32-5.251 26.088-13.52.286-.41-.36-1.344-.852-1.095a17.812 17.812 0 0 0-4.471 3.548 67.681 67.681 0 0 1-4.703 4.296c-2.822 2.341-5.748 4.579-8.652 6.816-3.261 2.5-6.589 4.968-9.366 8.017-1.141 1.252-2.511 2.812-2.697 4.586a3.111 3.111 0 0 0 2.206 3.228c1.789.592 3.827-.305 5.399-1.145a37.118 37.118 0 0 0 6.266-4.444c4.404-3.679 8.859-7.422 12.489-11.889a74.327 74.327 0 0 0 6.526-9.727c.898-1.556 2.004-2.992 2.982-4.501 1.704-2.631 5.241-7.848 2.272-10.763-1.457-1.438-3.678-.482-5.353.056-1.112.352-2.201.775-3.32 1.088-1.536.434-3.286.304-4.864.232-3.986-.171-8.009-.178-11.889-1.182a42.993 42.993 0 0 0-5.503-1.345 13.864 13.864 0 0 0-4.815.331c-1.417.326-2.805.86-4.255 1.095-1.151.174-2.328.219-3.49.301-2.413.169-5.113.244-7.34 1.309a3.005 3.005 0 0 0-1.685 1.762.881.881 0 0 0 .265.771c9.04 8.443 21.546 6.096 32.778 5.748 2.979-.091 5.906-.006 8.853-.571a27.886 27.886 0 0 0 6.929-2.32c5.251-2.538 9.571-6.514 14.488-9.592a54.744 54.744 0 0 1 9.84-4.632c3.392-1.273 6.927-2.549 9.757-4.879.365-.3-.006-.863-.265-1.091a22.627 22.627 0 0 0-10.905-5.052c-3.807-.714-7.696-.523-11.547-.374-7.43.284-15.178 1.181-21.419 5.618-.271.199-.095.606.022.822 1.005 1.802 4.153 1.788 5.901 1.909 2.987.27 5.987.341 8.983.214 4.144-.264 8.288-.613 12.432-.891 3.903-.35 7.784-.912 11.626-1.683 4.101-.729 8.847-1.285 12.425 1.313l-.265-1.09c-3.299 2.712-7.382 4.027-11.291 5.556-3.303 1.303-6.334 3.097-9.485 4.716-4.823 2.486-13.116 6.306-12.326 12.971.042.371.348.911.799.88 1.356-.134 2.278-.858 3.271-1.741a28.554 28.554 0 0 1 3.879-2.733c3.016-1.852 6.077-3.636 9.093-5.489 6.141-3.771 12.269-7.57 18.254-11.601l-.829-.521c.715 1.407-.117 3.143-.716 4.452a30.07 30.07 0 0 0-1.62 4.037 108.32 108.32 0 0 0-2.774 13.158 103.726 103.726 0 0 0-1.054 11.58c-.1 2.634-.427 5.243-.514 7.878-.07 2.361-.305 5.549 1.135 7.595.178.245.725.674.872.162 2.362-8.274 6.722-15.9 7.824-24.526 1.054-8.284.33-16.65-.09-24.954-.018-.373-.363-.92-.798-.88-4.09.416-6.798 4.109-9.52 6.806-3.366 3.37-6.786 6.736-9.444 10.749-5.31 8.028-8.648 17.132-12.183 26.022-1.353 3.389-2.798 7.306-1.306 10.874a.834.834 0 0 0 .722.558c2.268-.238 3.714-2.522 4.735-4.326 1.304-2.259 2.349-4.66 3.605-6.946a57.807 57.807 0 0 0 4.403-10.456 69.778 69.778 0 0 1 4.848-11.62c1.87-3.558 3.953-6.994 5.951-10.479 1.997-3.484 3.652-7.224 6.422-10.164 2.769-2.939 6.306-5.337 9.514-7.867a90.127 90.127 0 0 1 9.095-6.44c3.593-2.188 7.256-4.227 10.495-6.896 2.995-2.469 4.98-6.167 8.423-8.057.507-.276-.207-1.278-.655-1.216-3.574.458-7.189.039-10.762.47-3.72.452-6.854 2.165-9.861 4.322-1.575 1.129-3.099 2.33-4.687 3.444-1.588 1.115-3.176 1.945-4.762 2.933-3.311 2.045-6.399 4.673-8.111 8.23-.931 1.92-1.228 4.427 1.268 5.186 2.635.811 5.945-.346 8.509-.948a59.734 59.734 0 0 0 11-3.479c1.83-.818 3.519-1.875 5.262-2.864 1.85-1.063 3.72-2.05 5.54-3.137 4.13-2.453 7.55-5.4 9.849-9.677 2.242-4.154 3.412-8.777 5.199-13.101a.864.864 0 0 0-.1-.758.876.876 0 0 0-.658-.39c-2.331.075-4.524.528-6.183 2.233-2.038 2.091-3.181 4.968-4.964 7.27-2.221 2.873-4.624 5.548-6.555 8.646-2.056 3.352-4 6.768-5.928 10.193-1.928 3.426-3.821 6.878-5.781 10.285-1.095 1.897-2.304 3.707-3.436 5.582-1 1.645-2.042 3.537-2.154 5.503-.064 1.341.671 3.819 2.347 3.735 4.952-.238 7.613-6.039 9.434-9.846a76.525 76.525 0 0 1 10.456-16.585c4.418-5.191 7.886-10.903 8.657-17.774.326-2.901.392-5.846 1.016-8.711.705-3.251 2.326-5.923 4.329-8.531 3.784-4.918 8.733-9.689 9.469-16.154.143-1.245.314-2.156-.767-2.929a4.092 4.092 0 0 0-2.283-.856c-1.666-.017-2.878 1.392-3.753 2.649-.935 1.349-1.59 2.903-2.583 4.191-1.995 2.619-5.126 3.688-8.18 4.511-3.723 1.011-7.451 2.005-11.147 3.117a38.237 38.237 0 0 1-9.83 1.662c-5.8.203-12.304-.441-17.573 2.461a10.77 10.77 0 0 0-4.834 5.456c-.926 2.306-1.478 5.39-.568 7.812.91 2.422 3.216 3.043 5.487 2.074 1.227-.514 2.027-1.507 3.025-2.337 1.247-1.028 2.799-1.403 4.279-1.962 3.285-1.236 5.954-3.878 8.855-5.79a44.646 44.646 0 0 1 9.861-4.592c6.217-2.157 12.841-3.603 18.686-6.642 2.938-1.521 4.604-3.791 6.109-6.694 1.676-3.223 3.528-6.344 5.268-9.53a187.24 187.24 0 0 0 9.253-20.185c2.917-7.266 6.14-14.411 9.717-21.381a240.401 240.401 0 0 1 5.354-9.815c.277-.48-.618-1.55-.926-1.017l.013-.022Z" fill="#F1E0CE"/><path d="M358.985-66.914a272.55 272.55 0 0 1-12.045 19.007c-4.261 6.148-8.959 11.973-13.227 18.11-4.149 5.958-7.598 12.313-11.463 18.441-1.644 2.602-3.267 5.153-3.505 8.297a47.412 47.412 0 0 0 .515 9.197c.826 6.713 2.229 13.596 1.459 20.368-.379 3.375-1.515 6.867-1.29 10.279.112 1.627.46 3.213.055 4.826-.295 1.2-.738 2.337-.657 3.598.083 1.603.787 4.198 2.8 4.18 2.442-.01 4.897-2.613 6.27-4.377 3.335-4.275 2.996-9.556 1.304-14.426-.957-2.683-2.232-5.273-3.406-7.89a31.998 31.998 0 0 1-1.907-5.185c-.472-1.828-.659-3.719-.961-5.583-.561-3.507-1.33-6.998-1.785-10.514a12.92 12.92 0 0 1 1.223-7.902c1.392-2.57 4.138-5.936 2.175-8.908-.33-.51-1.073-1.266-1.728-1.29-.528-.02-1.116.606-1.531.956a16.607 16.607 0 0 0-1.774 1.732 30.07 30.07 0 0 0-4.724 7.984c-1.297 2.973-2.391 6.049-3.852 8.948a23.605 23.605 0 0 1-6.027 7.438c-2.32 1.963-4.828 3.711-6.991 5.858a31.663 31.663 0 0 0-5.492 7.767c-1.612 3.061-2.739 6.281-4.09 9.458a89.235 89.235 0 0 1-5.108 9.622c-2.461 4.262-6.31 8.383-7.362 13.33a8.705 8.705 0 0 0-.138 2.932c.09.67.279 1.979.774 2.45 1.174 1.103 3.087-.427 3.884-1.267a22.721 22.721 0 0 0 3.22-5.023c1.231-2.365 2.56-4.667 3.919-6.972 3.8-6.471 7.903-12.839 11.287-19.55 1.618-3.207 2.696-6.662 4.286-9.884 1.135-2.335 2.9-4.555 3.371-7.167.366-2.012-.25-3.959-1.07-5.774-.034-.077-.262-.543-.385-.38-2.42 3.32-5.199 6.36-7.508 9.758a26.673 26.673 0 0 0-4.526 10.975c-.63 4.033-.67 8.136-.986 12.215a44.612 44.612 0 0 0 .857 11.384c.288 1.544 2.065 14.077 5.846 10.591 2.593-2.388 3.739-6.55 4.298-9.905.616-3.637.727-7.323 1.365-10.975.638-3.652 1.364-7.494.533-11.22-.832-3.726-3.061-7.002-4.258-10.662-.034-.112-.515-1.05-.537-.644-.163 3.592-2.155 6.747-3.03 10.17a70.125 70.125 0 0 0-1.506 10.9 96.759 96.759 0 0 1-1.602 11.682c-.826 3.891-1.403 7.855-2.488 11.69-1.049 3.748-3.119 7.013-5.111 10.317-2.072 3.441-3.985 6.975-6.062 10.414a84.5 84.5 0 0 1-6.779 9.809c-2.439 2.995-4.962 5.864-7.078 9.11a297.882 297.882 0 0 0-5.121 8.131c-1.21 1.986-2.633 4.439-1.803 6.815.037.12.247.803.489.765 3.167-.664 5.429-3.585 7.295-6.016 2.643-3.446 5.286-6.892 7.806-10.409a122.082 122.082 0 0 0 8.102-12.717c2.289-4.198 3.819-8.705 5.225-13.256.753-2.45 1.633-4.896 2.234-7.39a9.444 9.444 0 0 0-.141-5.5c-.013-.051-.305-.887-.488-.766-6.923 4.215-14.037 8.233-20.189 13.574-6.39 5.544-10.659 12.938-16.259 19.18-.2.225.217 1.297.52 1.302 2.048.045 4.229-1.764 5.8-2.874 2.116-1.499 4.109-3.168 6.189-4.716a123.213 123.213 0 0 0 18.191-16.24 39.148 39.148 0 0 0 2.928-3.841c.862-1.222 1.926-2.746 3.522-2.94l-.574-1.183c-.934 7.032-1.625 14.084-2.27 21.156-.33 3.474-.561 6.963-.918 10.436a40.528 40.528 0 0 1-.836 4.781 5.372 5.372 0 0 0 .132 3.13c.021.062.294.881.489.765 4.559-2.41 5.082-8.728 5.321-13.264.391-5.466.426-10.953.107-16.424a45.746 45.746 0 0 1-.164-5.116 23.22 23.22 0 0 1 .199-2.4c.045-.3.018-1.26.508-1.347.289-.046 1.177.68 1.35.836 2.581 2.087 3.453 5.68 4.234 8.745 1.65 6.493 4.249 12.582 6.608 18.83a58.5 58.5 0 0 0 3.759 7.626c.669 1.203 2.125 4.501 3.872 4.366a.123.123 0 0 0 .064-.112c1.068-6.906-.914-13.647-3.583-19.96-2.756-6.521-5.988-13.778-13.352-16.02a.057.057 0 0 0-.053-.005.06.06 0 0 0-.021.017.047.047 0 0 0-.011.024c-1.343 6.079.412 12.363.084 18.516-.31 5.852-1.938 11.538-2.229 17.394a29.057 29.057 0 0 0 2.633 13.758c2.288 4.957 4.075 10.165 6.542 15.021 2.57 4.985 6.158 9.436 11.801 10.918.043.025.059.034.09-.033 1.284-1.56.501-4.115-.02-5.821-.711-2.336-1.993-4.568-2.436-6.976-.534-2.901-.955-5.85-2.811-8.257-1.069-1.384-2.35-2.585-3.489-3.91-1.344-1.572-2.188-3.395-3.194-5.183-1.006-1.788-2.316-3.653-2.902-5.653a18.318 18.318 0 0 1-.423-2.957c-.195-1.569-.261-4.186-1.479-5.386-2.716-2.676-6.477 4.564-7.321 6.122-.843 1.559-1.626 3.323-2.501 4.949-1.663 3.088-3.433 6.093-4.856 9.271-2.395 5.379-3.76 11.04-5.138 16.736a60.126 60.126 0 0 0-1.319 6.861c-.231 1.926-.378 4 .229 5.878.361 1.11 1.121 2.622 2.502 2.581 1.38-.042 2.257-1.695 2.78-2.749 1.872-3.785 2.64-8.164 3.402-12.277 1.188-6.339 2.351-12.685 4.23-18.866.556-1.629.881-3.327.967-5.046.003-.19-.5-1.361-.604-1.144-3.497 7.214-3.205 15.7-1.793 23.405a67.565 67.565 0 0 0 2.78 10.711c1.494 4.165 3.965 7.893 5.648 11.955 1.683 4.061 2.907 8.497 5.984 11.779a.124.124 0 0 0 .112.065c1.804-.664 1.776-3.457 1.737-5.014a43.696 43.696 0 0 0-1.343-8.858 62.919 62.919 0 0 0-1.939-6.802c-.615-1.74-1.374-3.428-1.979-5.184-.765-2.267-1.287-4.599-2.03-6.854a24.456 24.456 0 0 0-2.594-5.006c-.516-.852-1.686-2.394-1.504-3.447.078-.48-.165-.244.155-.109.371.314.672.703.883 1.141.346.577.655 1.176.925 1.792 2.133 4.598 5.226 8.308 8.336 12.271 3.111 3.962 6.037 8.279 9.529 12.036a38.761 38.761 0 0 0 13.177 9.163c2.732 1.186 5.558 2.086 8.313 3.194 1.192.482 2.329 1.096 3.493 1.64a38.762 38.762 0 0 0 5.059 2.026c1.023.307 2.54.792 3.546.194.28-.165-.27-1.108-.402-1.248-4.003-4.371-8.358-8.505-13.496-11.514a45.968 45.968 0 0 0-8.436-3.656c-2.632-.916-4.927-2.539-7.205-4.117-2.278-1.578-4.555-3.184-7.178-4.066-.594-.201-.846-.403-1.317-.093-.318.272-.585.6-.785.967a4.461 4.461 0 0 0-.615 2.209c-.088 3.388 2.232 6.382 3.637 9.288 2.702 5.58 5.518 11.098 8.282 16.644 1.193 2.4 2.254 4.917 3.646 7.219 1.124 1.878 2.481 3.613 3.597 5.493a9.843 9.843 0 0 1 1.608 5.9 37.677 37.677 0 0 1-.735 5.628c-.121.555-.19 1.559-.591 1.995-.118.145-.07.208-.19.231a4.602 4.602 0 0 1-.52-.698 34.317 34.317 0 0 1-1.279-1.931 47.587 47.587 0 0 1-3.867-7.83 60.286 60.286 0 0 1-2.822-9.655c-.604-2.963-.903-5.977-1.672-8.914a54.767 54.767 0 0 0-2.629-7.527c-1.034-2.429-2.782-5.023-2.431-7.76l-.322-.143c3.813 6.214 9.381 10.693 15.216 14.907 3.064 2.21 6.154 4.399 9.004 6.882 2.657 2.323 5.341 4.945 6.662 8.292a10.65 10.65 0 0 1 .484 5.792c-.105.649-.236 1.32-.288 1.964-.038.348.122 1.129-.175.61a4.552 4.552 0 0 1-.34-1.17c-.847-2.975-3.731-5.116-5.773-7.225-2.808-2.886-5.471-5.915-8.145-8.922-2.525-2.836-5.18-5.569-7.665-8.438a38.577 38.577 0 0 1-3.572-4.676c-1.022-1.649-1.793-3.415-2.724-5.124-1.76-3.325-4.092-6.568-4.935-10.286-.075-.314-.746-1.404-.546-.543.756 3.278 2.483 6.278 4.13 9.196 1.826 3.185 3.253 6.594 5.418 9.599 2.279 3.162 5.1 5.928 7.7 8.807 3.143 3.462 6.19 7.018 9.412 10.406 1.716 1.814 3.687 3.456 5.227 5.439.49.598.852 1.291 1.063 2.035.09.336.147.667.262.996a4.453 4.453 0 0 0 1.043 1.725c.096.055.17.062.161-.071-.058-1.645.445-3.23.557-4.863a11.928 11.928 0 0 0-.61-4.295 19.591 19.591 0 0 0-4.309-7.189c-5.149-5.636-11.922-9.455-17.812-14.212a41.202 41.202 0 0 1-9.423-10.412c-.061-.092-.283-.433-.317-.141-.441 3.397 1.801 6.723 3.051 9.738a47.507 47.507 0 0 1 2.183 6.453c.557 2.211.833 4.451 1.225 6.688 1.472 8.4 4.515 16.919 9.712 23.776.064.037.156.21.218.126 1.145-1.712 1.22-4.474 1.424-6.452.236-2.242.288-4.287-.545-6.437-1.059-2.742-2.882-5.109-4.485-7.561-2.194-3.348-3.735-7.185-5.528-10.749-1.94-3.862-3.891-7.716-5.783-11.599-.682-1.389-1.334-2.795-2.079-4.149a24.718 24.718 0 0 1-1.752-3.511 5.053 5.053 0 0 1 .016-4.111c.473-.905.999-1.362 2.047-1.012.947.328 1.865.734 2.744 1.214 3.419 1.854 6.332 4.523 9.843 6.216 2.08 1.009 4.368 1.513 6.492 2.448a38.627 38.627 0 0 1 5.979 3.324 63.933 63.933 0 0 1 11.183 10.009l-.429-1.25c-1.026.608-2.522.1-3.564-.225a37.983 37.983 0 0 1-4.699-1.875c-1.177-.544-2.334-1.148-3.524-1.658-2.346-1.006-4.809-1.747-7.173-2.721-5.573-2.294-10.472-5.335-14.557-9.824-3.785-4.111-6.862-8.807-10.378-13.138-2.022-2.488-4.108-4.978-5.672-7.792-1.232-2.21-1.911-4.797-3.881-6.502-.163-.137-.175.055-.163.183.376 3.384 2.555 5.786 3.945 8.755.869 1.852 1.227 4.025 1.807 5.973.58 1.947 1.228 3.692 1.946 5.499a57.161 57.161 0 0 1 3.41 12.892c.311 2.119.685 4.657-.006 6.716-.171.505-.691 1.639-1.322 1.403-.785-.289-1.626-2.104-1.962-2.752a31.221 31.221 0 0 1-1.441-3.14c-.737-1.847-1.396-3.733-2.208-5.537-.871-1.923-1.875-3.802-2.844-5.691a50.703 50.703 0 0 1-4.178-11.61c-2.03-8.566-2.919-18.32 1.073-26.463l-.607-1.139c-.064 3.444-1.614 6.782-2.412 10.107-.798 3.325-1.414 6.854-2.108 10.282-.648 3.177-1.163 6.332-1.956 9.454a36.28 36.28 0 0 1-1.684 5.278c-.501 1.174-1.182 2.798-2.416 3.385-3.609 1.724-2.259-6.347-2.021-7.744.632-3.74 1.614-7.47 2.551-11.148a71.87 71.87 0 0 1 7.169-17.411c1.775-3.173 3.239-6.547 5.185-9.621.889-1.405 1.968-3.076 3.505-3.844a2.054 2.054 0 0 1 1.735-.177c.742.365.711 1.611.821 2.356.237 1.607.214 3.32.735 4.878 1.004 3.023 2.908 5.728 4.348 8.548 1.315 2.57 3.33 4.48 5.194 6.628a10.189 10.189 0 0 1 2.333 5.161c.164 1.145.389 2.28.672 3.4.597 1.943 1.493 3.788 2.12 5.727.408 1.081.631 2.222.657 3.377a3.37 3.37 0 0 1-.221 1.208c-.351.841-1.028.464-1.74.209-5.458-1.95-8.617-6.949-10.906-11.978-1.147-2.516-2.118-5.102-3.172-7.656-1.054-2.555-2.45-5.094-3.329-7.767-1.68-5.111-1.262-10.46-.447-15.686.494-3.18 1.141-6.344 1.425-9.554.232-2.99.207-5.993-.073-8.978-.137-1.67-.293-3.344-.349-5.017-.057-1.674-.285-3.801.27-5.292.336-.9.893-.5 1.642-.174.754.328 1.477.722 2.162 1.177a17.43 17.43 0 0 1 3.842 3.582c2.048 2.603 3.342 5.651 4.646 8.67a56.376 56.376 0 0 1 2.979 8.276 28.468 28.468 0 0 1 .943 8.982c-.03.459.059 1.782-.281 2.111-.339.33-.713-.106-.995-.354a10.804 10.804 0 0 1-2.004-2.841 54.84 54.84 0 0 1-3.268-6.297c-1.261-3.108-2.38-6.275-3.64-9.382a69.32 69.32 0 0 1-3.03-9.257 35.938 35.938 0 0 0-2.52-7.542c-1.015-2.007-2.407-3.805-4.506-4.733a.055.055 0 0 0-.052-.004.055.055 0 0 0-.022.016.07.07 0 0 0-.011.025c-.792 3.648-.482 7.343-.205 11.033.169 3.42.161 6.845-.023 10.264-.085 3.346-.132 6.736-.817 10.026-.617 2.89-1.808 5.875-4.551 7.317l.492.76c-.513-1.462.326-3.186.555-4.652.228-1.466.379-3.02.49-4.54.259-3.266.557-6.525.865-9.778.624-6.58 1.286-13.15 2.145-19.708.027-.219-.263-1.217-.569-1.18-2.495.335-3.824 3.573-5.202 5.32-2.686 3.422-6.086 6.48-9.29 9.446-4.808 4.44-10.093 8.379-15.361 12.262a38.617 38.617 0 0 1-3.781 2.526c-.899.511-1.954 1.096-3.025 1.095l.519 1.302c5.605-6.24 9.881-13.644 16.265-19.178 6.148-5.335 13.278-9.38 20.188-13.573l-.492-.76c.749 2.123.11 4.325-.535 6.389l-1.906 6.18a68.895 68.895 0 0 1-5.01 12.577c-4.286 7.867-9.75 14.92-15.109 22.061-2.04 2.721-4.47 6.254-8.031 6.997l.491.76c-.752-2.154 1.529-5.219 2.614-6.901 1.552-2.393 3-4.852 4.565-7.23 2.108-3.123 4.577-5.96 6.982-8.896a83.951 83.951 0 0 0 6.658-9.588c2.043-3.366 3.94-6.823 5.94-10.214 1.899-3.166 3.971-6.288 5.099-9.841 1.174-3.72 1.74-7.626 2.509-11.444a100.33 100.33 0 0 0 1.662-10.752c.38-4.263.617-8.573 1.62-12.745.853-3.57 2.913-6.842 3.081-10.566l-.546-.678c.925 2.864 2.489 5.444 3.541 8.26 1.286 3.456 1.004 6.972.403 10.56-.512 3.1-1.075 6.141-1.301 9.278-.256 3.567-.875 7.173-2.512 10.39-.843 1.644-3.361 5.823-4.939 2.54a15.378 15.378 0 0 1-1.002-3.42c-.429-1.889-.834-3.784-1.157-5.697a42.133 42.133 0 0 1-.577-10.32c.299-3.69.335-7.42.842-11.09a26.762 26.762 0 0 1 4.568-11.505c2.31-3.397 5.088-6.438 7.509-9.757l-.389-.373c1.832 4.061-.602 7.096-2.401 10.617-1.118 2.195-2.004 4.567-2.948 6.878a65.983 65.983 0 0 1-3.486 7.072c-4.502 8.055-9.423 15.804-13.797 23.897-1.108 2.067-3.339 6.596-6.369 5.557l.373.584c-1.356-3.581 1.367-7.77 3.221-10.648 2.425-3.757 4.815-7.49 6.942-11.433 2.457-4.563 3.927-9.545 6.367-14.117a32.623 32.623 0 0 1 4.343-6.463 40.434 40.434 0 0 1 5.042-4.526c3.618-2.883 6.904-5.695 9.017-9.873 2.168-4.296 3.529-8.965 5.919-13.154a19.42 19.42 0 0 1 4.703-5.687c.721-.571 1.637-.916 2.302-.013.418.568.077 1.515-.133 2.125-.934 2.75-2.968 4.92-3.623 7.788-1.002 4.393.529 9.184 1.262 13.513.429 2.528.685 5.112 1.251 7.613a34.369 34.369 0 0 0 2.183 6.282c1.764 3.994 4.031 7.966 4.465 12.393.455 4.638-1.727 8.848-5.423 11.608-1.541 1.156-4.718 2.76-4.962-.472-.063-1.122.378-2.217.644-3.306a9.053 9.053 0 0 0 .179-2.88 25.025 25.025 0 0 1-.229-3.578c.132-1.487.342-2.966.627-4.432a49.07 49.07 0 0 0 .867-7.37c.086-4.922-.678-9.788-1.298-14.656-.301-2.369-.625-4.736-.807-7.114-.183-2.379-.34-5.083.449-7.433.76-2.253 2.171-4.216 3.413-6.22 1.407-2.277 2.705-4.624 4.083-6.925 2.781-4.631 5.694-9.185 8.888-13.549 3.301-4.487 6.687-8.839 9.859-13.386 3.172-4.547 6.23-9.117 9.135-13.804a271.91 271.91 0 0 0 4.304-7.196c.175-.304-.507-1.373-.593-1.224l.04.052Zm-93.212 236.432c-1.922 9.481-2.81 19.495-7.997 27.9-2.24 3.622-4.711 7.103-6.784 10.829-1.968 3.544-3.667 7.408-3.998 11.499-.176 2.25.218 4.459.401 6.688.218 2.527.335 5.066.453 7.606.244 5.113.536 10.254 1.621 15.276 1.02 4.73 2.599 9.314 4.049 13.901a166.128 166.128 0 0 0 5.357 14.515c1.018 2.42 2.052 4.835 3.067 7.261.906 2.121 1.73 4.188 3.142 6.011 2.443 3.151 6.007 4.961 9.416 6.857 5.336 2.974 9.986 7.136 15.648 9.532 2.473 1.044 5.307 1.771 7.974 1.088 3.022-.756 5.02-3.097 6.517-5.691a39.923 39.923 0 0 0 4.119-10.947c.426-1.787.497-3.641.209-5.455a19.295 19.295 0 0 0-2.125-5.965c-2.149-3.968-5.59-7.048-8.694-10.261-3.435-3.56-6.981-7.099-11.05-9.931-1.848-1.301-3.794-2.482-5.694-3.671a28.929 28.929 0 0 0-5.867-3.075c-4.031-1.382-8.257-.363-12.316.319a26.771 26.771 0 0 1-6.086.478c-.502-.027-.413.827-.316 1.089 1.173 3.099 1.479 6.408 1.956 9.653a38.06 38.06 0 0 0 .936 4.802c.44 1.475.98 2.919 1.617 4.321a66.542 66.542 0 0 0 4.748 8.999c.947 1.499 1.965 2.946 2.934 4.429a99.68 99.68 0 0 0 7.382 10.256 33.413 33.413 0 0 0 4.557 4.57 12.047 12.047 0 0 0 4.652 2.509c3.268.75 6.227-1.434 7.382-4.432 1.237-3.213.289-6.872-.95-9.931-1.604-3.952-3.995-7.584-6.501-11.02-2.353-3.219-4.895-6.285-7.51-9.308-.844-.998-1.753-2.02-2.606-3.053-1.944-2.365-3.292-5.111-4.81-7.748-1.517-2.638-3.379-5.219-5.917-7.06-2.971-2.163-6.284-3.806-9.543-5.468-1.645-.842-3.286-1.691-4.887-2.608-.666-.384-.879.956-.372 1.248 3.148 1.818 6.449 3.333 9.635 5.087 2.891 1.598 5.801 3.349 7.929 5.949 1.918 2.386 3.22 5.176 4.739 7.786a35.033 35.033 0 0 0 3.612 5.012c4.96 5.804 10.083 11.631 13.74 18.374 1.608 2.96 3.258 6.462 3.023 9.921-.211 2.825-2.26 5.797-5.299 6.017-3.5.231-6.68-2.898-8.866-5.239a77.04 77.04 0 0 1-7.711-10.177c-2.423-3.665-4.915-7.284-6.903-11.209a39.21 39.21 0 0 1-3.48-8.736c-.72-3.072-.917-6.211-1.513-9.325a26.429 26.429 0 0 0-1.231-4.376c-.105.366-.215.728-.316 1.089 4.119.247 8.081-1.067 12.174-1.402a14.565 14.565 0 0 1 5.897.563 28.148 28.148 0 0 1 5.934 3.057c1.848 1.166 3.728 2.302 5.511 3.558a55.155 55.155 0 0 1 5.455 4.477c3.592 3.289 6.864 6.897 10.262 10.386 2.803 2.883 5.11 6.686 5.642 10.736a13.545 13.545 0 0 1-.476 5.167 44.908 44.908 0 0 1-1.756 5.378c-1.205 3.048-2.758 6.598-5.598 8.466-2.253 1.442-4.9 1.511-7.411.843-5.734-1.535-10.484-5.598-15.382-8.753-2.95-1.902-6.225-3.303-9.014-5.46a15.099 15.099 0 0 1-3.793-4.221c-1.216-2.052-2.003-4.367-2.935-6.567-1.956-4.681-3.993-9.309-5.677-14.082-1.59-4.504-3.034-9.102-4.362-13.691a69.729 69.729 0 0 1-2.589-14.364c-.361-4.947-.403-9.907-.905-14.842a23.84 23.84 0 0 1-.128-6.189 23.626 23.626 0 0 1 1.742-5.749c1.656-3.803 3.949-7.295 6.213-10.761 1.083-1.655 2.167-3.309 3.173-5.015a34.574 34.574 0 0 0 2.813-6.189c1.602-4.559 2.501-9.339 3.364-14.082.418-2.273.813-4.545 1.274-6.808.062-.304.054-.757-.241-.948a.41.41 0 0 0-.621.301l-.039.006Zm-55.465 106.439-1.491-1.329.381.816c.648-3.177 2.176-6.144 3.804-8.926 1.732-2.999 3.723-5.834 5.646-8.709 1.922-2.875 3.712-5.975 5.565-8.975 2.237-3.616 4.535-7.276 5.989-11.295 1.453-4.019 2.045-8.464 4.639-12.046.309-.425-.671-1.41-.926-1.053-2.414 3.344-3.14 7.308-4.388 11.154-1.377 4.255-3.727 8.105-6.068 11.888-2.018 3.275-3.945 6.601-6.088 9.796-2.059 3.073-4.147 6.087-5.952 9.299a35.161 35.161 0 0 0-2.484 5.263 12.578 12.578 0 0 0-.753 2.62 1.06 1.06 0 0 0 .465.979c.465.425.939.833 1.41 1.247.168.154.512.345.659.09.148-.256-.235-.676-.384-.812l-.024-.007Z" fill="#F1E0CE"/><path d="M286.771 307.744c-1.184 2.051-2.061 4.258-3.288 6.285-1.052 1.736-2.52 3.517-4.68 3.726-3.329.329-6.075-2.272-7.969-4.651-1.893-2.379-3.648-5.097-5.827-7.363-1.076-1.126-2.279-2.118-3.285-3.317a22.082 22.082 0 0 1-2.499-3.631 37.216 37.216 0 0 1-3.412-8.618 59.382 59.382 0 0 1-1.659-9.147c-.33-3.032-.606-6.16.12-9.164.866-3.592 2.706-6.962 3.13-10.637.415-3.511-.178-7.405 1.391-10.69.36-.758-.944-1.255-1.297-.521-1.462 3.062-1.143 6.606-1.369 9.864-.258 3.572-1.763 6.745-2.777 10.137a18.498 18.498 0 0 0-.927 5.112c-.018 1.495.087 2.998.207 4.488a62.623 62.623 0 0 0 1.541 9.633 41.286 41.286 0 0 0 3.278 9.159 26.666 26.666 0 0 0 2.443 3.889 34.873 34.873 0 0 0 3.341 3.513c2.339 2.309 4.141 5.032 6.157 7.617 2.103 2.706 4.865 5.352 8.477 5.605 5.914.374 7.845-6.651 10.183-10.749.418-.724-.891-1.225-1.292-.518l.013-.022Z" fill="#F1E0CE"/></svg>