<svg width="369" height="420" fill="none" xmlns="http://www.w3.org/2000/svg"><mask id="a" style="mask-type:alpha" maskUnits="userSpaceOnUse" x="0" y="0" width="442" height="420"><path fill="#FFF7EE" d="M0 0h442v420H0z"/></mask><g mask="url(#a)" stroke="#F8EBDD" stroke-width="2.5" stroke-miterlimit="10"><path d="M243.372 115.359a155.866 155.866 0 0 1-112.464-30.75m-42.604-9.68a47.885 47.885 0 0 0-24.692-1.864"/><path d="M271.298-330.496a161.385 161.385 0 0 1 5.014 73.212c-2.801 16.615-8.137 32.823-9.145 49.634-.953 16.125 2.143 32.221 1.596 48.402a127.38 127.38 0 0 1-30.013 77.372c-16.036 18.717-37.115 33.706-61.778 37.363-13.095 1.933-26.4 1.835-39.607 2.802a5.825 5.825 0 0 0-3.628 1.12 5.715 5.715 0 0 0-1.4 3.11 182.136 182.136 0 0 0-3.88 33.034c-.182 6.766.182 14.009 4.202 19.458 14.005 18.87 50.839 22.863 71.609 28.943a864.247 864.247 0 0 1 93.01 33.09c23.207 9.806 47.395 21.826 59.873 43.694 7.675 13.463 10.042 29.42 10.042 44.83 0 45.543-19.019 88.565-35.013 131.181-24.398 64.862-50.812 137.78-57.212 207.055"/><path d="M170.487-330.496c-9.439 56.765-74.999 75.285-117.73 107.086C-4.79-180.556-32.884-115.904-41.428-44.765c-9.075 75.453 17.48 153.077 42.213 224.44 20.154 58.096 54.495 110.364 89.508 160.516 34.3 49.228 67.997 100.194 60.686 163.599"/></g></svg>