<svg width="76" height="392" fill="none" xmlns="http://www.w3.org/2000/svg"><g clip-path="url(#a)" stroke="#F8EBDD" stroke-width="2.5" stroke-miterlimit="10"><path d="M14.775 63.387a14.414 14.414 0 0 0 13.02-3.829 74.202 74.202 0 0 0-14.43 3.316 27.119 27.119 0 0 0 5.753-2.562 9.05 9.05 0 0 0 3.904-4.782 91.788 91.788 0 0 0-9.316 5.454c2.619-2.213 5.453-4.873 5.486-8.288-.613-.257-1.26.24-1.74.704l-6.747 6.465a45.443 45.443 0 0 0 2.545-9.017l-4.6 5.511a29.009 29.009 0 0 0 1.301-9.448c0-.348-.066-.771-.39-.912a.92.92 0 0 0-.828.207c-3.034 2.006-4.642 5.678-7.683 7.675a18.17 18.17 0 0 1-5.91 2.138c-.19.042-.448.058-.53-.116-.083-.174.331-.265.248-.083"/><path d="M-9.029 35.307c-.829 7.808.182 15.748 2.18 23.348 1.997 7.6 4.973 14.918 8.09 22.12.654 1.51 1.317 3.167.886 4.758a6.431 6.431 0 0 1-1.724 2.61 25.022 25.022 0 0 1-19.892 7.385M1.655 264.074A92.26 92.26 0 0 1-64.9 245.882"/><path d="M18.181.299a95.45 95.45 0 0 1 2.968 43.313c-1.658 9.83-4.816 19.419-5.413 29.365-.563 9.54 1.268 19.062.945 28.635A75.35 75.35 0 0 1-1.08 147.387c-9.49 11.072-21.964 19.941-36.56 22.104-7.75 1.144-15.623 1.085-23.439 1.657a3.456 3.456 0 0 0-2.146.663 3.384 3.384 0 0 0-.83 1.84 107.747 107.747 0 0 0-2.295 19.544c-.108 4.003.108 8.288 2.486 11.512 8.288 11.164 30.086 13.526 42.378 17.123a511.337 511.337 0 0 1 55.042 19.576c13.734 5.802 28.047 12.913 35.432 25.85 4.542 7.965 5.943 17.405 5.943 26.522 0 26.945-11.255 52.397-20.72 77.609-14.439 38.374-30.07 81.513-33.858 122.497"/></g><defs><clipPath id="a"><path fill="#fff" transform="matrix(-1 0 0 1 76 0)" d="M0 0h245v392H0z"/></clipPath></defs></svg>